<?xml version="1.0" encoding="UTF-8"?> <!-- Generator: Adobe Illustrator 16.0.0, SVG Export Plug-In . SVG Version: 6.00 Build 0) --> <svg xmlns="http://www.w3.org/2000/svg" xmlns:xlink="http://www.w3.org/1999/xlink" id="Artwork" x="0px" y="0px" width="190px" height="108.609px" viewBox="0 0 190 108.609" xml:space="preserve"> <g> <path fill="#CC8000" d="M23.868,17.151c-2.125,0-4.135,1.186-5.173,2.987c-1.08-1.872-2.661-2.987-4.856-2.987 c-1.827,0-3.525,1.15-4.458,2.625h-0.07v-2.119H6.079v16.821h3.231v-8.27c0-2.622,0.288-6.18,3.74-6.18 c2.984,0,3.093,3.343,3.093,5.532v8.917h3.231v-8.27c0-2.589,0.259-6.18,3.696-6.18c2.846,0,3.137,2.767,3.137,4.92v9.529h3.234 V24.414C29.441,20.603,28.288,17.151,23.868,17.151"></path> <path fill="#CC8000" d="M45.143,20.46h-0.067c-1.333-2.013-3.343-3.308-5.83-3.308c-4.882,0-7.937,4.206-7.937,8.806 c0,4.813,2.911,9.096,8.046,9.096c2.41,0,4.423-1.299,5.721-3.201h0.067v2.624h3.237V17.655h-3.237V20.46z M39.86,32.175 c-3.416,0-5.323-2.945-5.323-6.108c0-3.128,1.978-6.039,5.323-6.039c3.488,0,5.465,2.767,5.465,6.039 C45.325,29.374,43.38,32.175,39.86,32.175"></path> <path fill="#CC8000" d="M55.06,20.387h-0.105v-2.731h-3.243v16.821h3.243v-8.266c0-2.734,0.43-5.968,3.92-5.968 c0.753,0,1.4,0.182,1.974,0.686l1.471-2.946c-0.791-0.503-1.727-0.832-2.663-0.832C57.5,17.15,55.854,18.41,55.06,20.387"></path> <path fill="#CC8000" d="M66.253,10.706c-1.227,0-2.23,1.003-2.23,2.266c0,1.218,1.004,2.189,2.23,2.189 c1.225,0,2.225-0.972,2.225-2.189C68.478,11.709,67.478,10.706,66.253,10.706"></path> <rect x="64.635" y="17.655" fill="#CC8000" width="3.233" height="16.821"></rect> <path fill="#CC8000" d="M79.559,17.151c-2.051,0-4.064,0.971-5.071,2.769h-0.076v-2.263h-3.231v16.821h3.231v-7.73 c0-3.052,0-6.719,4.17-6.719c3.311,0,3.705,1.938,3.705,4.811v9.639h3.228V24.446C85.515,20.354,84.297,17.151,79.559,17.151"></path> <path fill="#CC8000" d="M101.374,20.46h-0.08c-1.327-2.013-3.337-3.308-5.818-3.308c-4.885,0-7.942,4.206-7.942,8.806 c0,4.813,2.91,9.096,8.048,9.096c2.41,0,4.423-1.299,5.712-3.201h0.08v2.624h3.231V17.655h-3.231V20.46z M96.083,32.175 c-3.405,0-5.312-2.945-5.312-6.108c0-3.128,1.975-6.039,5.312-6.039c3.49,0,5.467,2.767,5.467,6.039 C101.55,29.374,99.608,32.175,96.083,32.175"></path> <path fill="#CC8000" d="M123.985,17.152c-2.516,0-4.529,1.295-5.859,3.308h-0.067V3.281h-3.24v31.195h3.24v-2.624h0.067 c1.295,1.902,3.343,3.201,5.715,3.201c5.17,0,8.048-4.282,8.048-9.096C131.89,21.358,128.841,17.152,123.985,17.152 M123.197,32.175c-3.417,0-5.321-2.945-5.321-6.108c0-3.128,1.98-6.039,5.321-6.039c3.487,0,5.461,2.767,5.461,6.039 C128.659,29.374,126.713,32.175,123.197,32.175"></path> <path fill="#CC8000" d="M147.003,20.46h-0.068c-1.333-2.013-3.346-3.308-5.827-3.308c-4.89,0-7.936,4.206-7.936,8.806 c0,4.813,2.904,9.096,8.045,9.096c2.41,0,4.422-1.299,5.717-3.201h0.068v2.624h3.24V17.655h-3.24V20.46z M141.727,32.175 c-3.419,0-5.323-2.945-5.323-6.108c0-3.128,1.977-6.039,5.323-6.039c3.487,0,5.459,2.767,5.459,6.039 C147.186,29.374,145.25,32.175,141.727,32.175"></path> <polygon fill="#CC8000" points="166.292,17.657 161.003,28.33 155.328,17.657 151.558,17.657 159.247,31.6 152.629,44.107 156.298,44.107 169.923,17.657 "></polygon> <path fill="#FFFFFF" d="M142.598,98.252h0.033c0.429-0.683,1.218-1.215,2.06-1.215c1.021,0,1.756,0.52,2.25,1.38 c0.483-0.833,1.416-1.38,2.396-1.38c2.051,0,2.578,1.597,2.578,3.36v4.661h-1.492v-4.412c0-0.994-0.136-2.277-1.451-2.277 c-1.595,0-1.719,1.659-1.719,2.863v3.826h-1.498v-4.129c0-1.016-0.044-2.561-1.424-2.561c-1.598,0-1.733,1.648-1.733,2.863v3.826 H141.1v-7.787h1.498V98.252z"></path> <path fill="#FFFFFF" d="M159.392,97.273v1.294h-0.038c-0.612-0.932-1.54-1.532-2.69-1.532c-2.263,0-3.681,1.951-3.681,4.081 c0,2.229,1.351,4.212,3.734,4.212c1.109,0,2.042-0.602,2.637-1.48h0.038v1.213h1.501v-7.787H159.392z M156.948,103.994 c-1.581,0-2.466-1.365-2.466-2.828c0-1.448,0.915-2.797,2.466-2.797c1.612,0,2.528,1.281,2.528,2.797 C159.476,102.696,158.575,103.994,156.948,103.994z"></path> <rect x="162.572" y="90.614" fill="#FFFFFF" width="1.492" height="14.446"></rect> <rect x="165.939" y="90.614" fill="#FFFFFF" width="1.492" height="14.446"></rect> <polygon fill="#FFFFFF" points="75.274,37.531 75.274,105.029 62.376,105.029 62.485,37.531 "></polygon> <path fill="#FFFFFF" d="M172.815,70.986c8.799,7.298,11.444,19.971,11.444,30.808v3.083H171.2c0,0,0.547-4.92,0.468-7.091 c-0.297-8.176-5.5-19.761-15.135-19.761h-15.735v7.942c0,6.968-5.029,18.966-17.727,18.966c-12.709,0-17.727-11.934-17.727-19.379 v-8.527V64.944v-9.322c0-3.626-2.946-6.354-5.229-6.354c-2.452,0-5.318,2.137-5.318,6.37v49.295H82.296V55.822 c0-6.972,5.021-18.78,17.718-18.78c12.707,0,17.73,12.326,17.73,18.729v9.173v12.083v9.59c0,3.195,3.166,5.705,5.226,5.705 c2.21,0,5.321-1.917,5.321-5.716V37.042h12.506v27.334h15.111c5.126,0,15.759-6.627,15.759-19.767 c0-14.819-0.142-27.011-0.142-27.011h12.604c0,0,0.129,18.054,0.129,27.223C184.26,53.5,181.111,63.888,172.815,70.986"></path> <path fill="#FFFFFF" d="M18.373,37.337c0,0-0.232,22.888-0.232,34.05c0,10.05,7.745,20.061,17.289,20.061 c7.328,0,10.773-4.667,14.219-10.016l9.59,9.583c0,0-2.054,2.919-3.123,4.088c-5.476,5.97-13.207,9.929-21.482,9.929 c-15.111,0-28.895-15.715-28.895-33.057V37.337H18.373z"></path> <g> <defs> <path id="SVGID_127_" d="M174.649,20.684c0,0,0.103,9.084,0.103,23.927c0,14.844-12.012,22.854-18.845,22.854h-18.198V40.127 h-6.33v45.841c0,6.536-4.582,9.493-8.411,9.493c-3.722,0-8.308-3.843-8.308-9.482v-8.953V64.944v-9.172 c0-7.235-4.558-15.726-14.646-15.726c-10.093,0-14.631,9.393-14.631,15.726v46.074h6.323V55.784c0-6.542,4.317-9.525,8.407-9.525 c3.838,0,8.317,3.873,8.317,9.514v9.172v12.081v8.531c0,6.838,4.552,16.29,14.637,16.29c10.094,0,14.64-9.552,14.64-15.879 V74.938h18.825c7.828,0,14.013,6.815,16.638,14.008c2.243,6.149,1.478,12.844,1.478,12.844h6.524 c0-25.374-13.795-30.642-13.795-30.642c10.005-6.212,13.795-17.165,13.795-26.326c0-9.16-0.106-24.139-0.106-24.139H174.649z"></path> </defs> <clipPath id="SVGID_2_"> <use xlink:href="#SVGID_127_" overflow="visible"></use> </clipPath> <linearGradient id="SVGID_4_" gradientUnits="userSpaceOnUse" x1="2683.7983" y1="120.8789" x2="2686.7412" y2="120.8789" gradientTransform="matrix(0 27.4707 27.4707 0 -3187.3291 -73705.125)"> <stop offset="0" style="stop-color:#4E9D2D"></stop> <stop offset="1" style="stop-color:#009FE3"></stop> </linearGradient> <rect x="85.384" y="20.684" clip-path="url(#SVGID_2_)" fill="url(#SVGID_4_)" width="95.79" height="81.163"></rect> </g> <g> <defs> <path id="SVGID_130_" d="M8.826,40.42v31.555c0,16.03,12.754,29.975,25.808,29.975c13.062,0,20.593-10.584,20.593-10.584 l-5.052-5.051c0,0-5.15,8.216-14.746,8.216c-11.777,0-20.37-11.971-20.37-23.144s0.194-30.967,0.194-30.967H8.826z"></path> </defs> <clipPath id="SVGID_6_"> <use xlink:href="#SVGID_130_" overflow="visible"></use> </clipPath> <linearGradient id="SVGID_8_" gradientUnits="userSpaceOnUse" x1="2683.7856" y1="118.4346" x2="2686.7283" y2="118.4346" gradientTransform="matrix(0 27.4713 27.4713 0 -3221.501 -73706.3906)"> <stop offset="0" style="stop-color:#4E9D2D"></stop> <stop offset="1" style="stop-color:#009FE3"></stop> </linearGradient> <rect x="8.826" y="40.42" clip-path="url(#SVGID_6_)" fill="url(#SVGID_8_)" width="46.4" height="61.529"></rect> </g> <g> <defs> <polygon id="SVGID_133_" points="65.567,40.615 65.468,101.949 72.192,101.949 72.192,40.615 "></polygon> </defs> <clipPath id="SVGID_10_"> <use xlink:href="#SVGID_133_" overflow="visible"></use> </clipPath> <linearGradient id="SVGID_12_" gradientUnits="userSpaceOnUse" x1="2683.7808" y1="119.3154" x2="2686.7231" y2="119.3154" gradientTransform="matrix(0 27.4716 27.4716 0 -3208.9482 -73707.0703)"> <stop offset="0" style="stop-color:#4E9D2D"></stop> <stop offset="1" style="stop-color:#009FE3"></stop> </linearGradient> <rect x="65.468" y="40.615" clip-path="url(#SVGID_10_)" fill="url(#SVGID_12_)" width="6.724" height="61.334"></rect> </g> </g> </svg> 