<svg width="182" height="32" viewBox="0 0 182 32" fill="none" xmlns="http://www.w3.org/2000/svg">
<path d="M17.5528 10.1057C17.5528 10.9658 16.8564 11.6584 16 11.6584C15.1399 11.6584 14.4436 10.9621 14.4436 10.1057C14.4436 9.24554 15.1399 8.55296 16 8.55296C16.8564 8.54924 17.5528 9.24554 17.5528 10.1057Z" fill="white"/>
<path d="M13.8852 7.33906C14.1719 8.03164 13.8442 8.82847 13.1479 9.11518C12.4553 9.4019 11.6585 9.07423 11.3718 8.37793C11.0851 7.68535 11.4127 6.88851 12.109 6.6018C12.8016 6.31509 13.5947 6.64649 13.8852 7.33906Z" fill="white"/>
<path d="M20.6247 23.6183C20.9114 24.3109 20.5837 25.1077 19.8874 25.3944C19.1948 25.6812 18.398 25.3535 18.1113 24.6572C17.8246 23.9646 18.1522 23.1678 18.8485 22.8811C19.5411 22.5943 20.338 22.922 20.6247 23.6183Z" fill="white"/>
<path d="M11.7401 3.17989C11.9449 3.67512 11.7103 4.24482 11.2151 4.44961C10.7199 4.65441 10.1502 4.41982 9.94537 3.9246C9.74058 3.42937 9.97516 2.85967 10.4704 2.65487C10.9656 2.45008 11.5353 2.68466 11.7401 3.17989Z" fill="white"/>
<path d="M22.0507 28.0754C22.2554 28.5706 22.0209 29.1403 21.5256 29.3451C21.0304 29.5499 20.4607 29.3153 20.2559 28.8201C20.0511 28.3249 20.2857 27.7552 20.7809 27.5504C21.2762 27.3419 21.8459 27.5802 22.0507 28.0754Z" fill="white"/>
<path d="M8.38153 11.3717C9.0741 11.6584 9.4055 12.4552 9.11879 13.1478C8.83207 13.8404 8.03524 14.1718 7.34266 13.885C6.65009 13.5983 6.31869 12.8015 6.6054 12.1089C6.89212 11.4126 7.68523 11.0849 8.38153 11.3717Z" fill="white"/>
<path d="M24.6572 18.1149C25.3497 18.4017 25.6811 19.1985 25.3944 19.8911C25.1077 20.5836 24.3109 20.915 23.6183 20.6283C22.9257 20.3416 22.5943 19.5448 22.881 18.8522C23.1678 18.1559 23.9646 17.8282 24.6572 18.1149Z" fill="white"/>
<path d="M3.92457 9.94555C4.41979 10.1503 4.65438 10.72 4.44958 11.2153C4.24479 11.7105 3.67509 11.9451 3.17986 11.7403C2.68463 11.5355 2.45005 10.9658 2.65484 10.4706C2.85964 9.97534 3.42934 9.74076 3.92457 9.94555Z" fill="white"/>
<path d="M28.8164 20.256C29.3116 20.4608 29.5462 21.0305 29.3414 21.5257C29.1366 22.021 28.5669 22.2555 28.0717 22.0507C27.5765 21.846 27.3419 21.2763 27.5467 20.781C27.7515 20.2858 28.3212 20.0512 28.8164 20.256Z" fill="white"/>
<path d="M7.339 18.1149C8.03158 17.8282 8.82841 18.1559 9.11512 18.8522C9.40184 19.5448 9.07416 20.3416 8.37787 20.6283C7.68529 20.915 6.88845 20.5874 6.60174 19.8911C6.31503 19.1985 6.64642 18.4017 7.339 18.1149Z" fill="white"/>
<path d="M23.6183 11.3717C24.3109 11.0849 25.1077 11.4126 25.3944 12.1089C25.6811 12.8015 25.3535 13.5983 24.6572 13.885C23.9646 14.1718 23.1678 13.8441 22.8811 13.1478C22.5943 12.4552 22.922 11.6584 23.6183 11.3717Z" fill="white"/>
<path d="M3.17986 20.256C3.67509 20.0512 4.24479 20.2858 4.44958 20.781C4.65438 21.2763 4.41979 21.846 3.92457 22.0507C3.42934 22.2555 2.85964 22.021 2.65484 21.5257C2.45005 21.0305 2.68463 20.4645 3.17986 20.256Z" fill="white"/>
<path d="M28.0717 9.94555C28.5669 9.74076 29.1366 9.97534 29.3414 10.4706C29.5462 10.9658 29.3116 11.5355 28.8164 11.7403C28.3212 11.9451 27.7515 11.7105 27.5467 11.2153C27.3419 10.72 27.5765 10.1503 28.0717 9.94555Z" fill="white"/>
<path d="M11.3718 23.6183C11.6585 22.9258 12.4553 22.5944 13.1479 22.8811C13.8405 23.1678 14.1719 23.9646 13.8852 24.6572C13.5984 25.3498 12.8016 25.6812 12.109 25.3945C11.4127 25.1078 11.0851 24.3109 11.3718 23.6183Z" fill="white"/>
<path d="M18.1113 7.33906C18.398 6.64649 19.1948 6.31509 19.8874 6.6018C20.58 6.88851 20.9114 7.68535 20.6246 8.37793C20.3379 9.0705 19.5411 9.4019 18.8485 9.11519C18.1559 8.82847 17.8246 8.03536 18.1113 7.33906Z" fill="white"/>
<path d="M9.94537 28.0754C10.1502 27.5802 10.7199 27.3456 11.2151 27.5504C11.7103 27.7552 11.9449 28.3249 11.7401 28.8201C11.5353 29.3153 10.9656 29.5499 10.4704 29.3451C9.97516 29.1366 9.74058 28.5706 9.94537 28.0754Z" fill="white"/>
<path d="M20.2559 3.17989C20.4607 2.68466 21.0304 2.45008 21.5256 2.65487C22.0209 2.85967 22.2554 3.42937 22.0507 3.9246C21.8459 4.41982 21.2762 4.65441 20.7809 4.44961C20.2857 4.24482 20.0511 3.67512 20.2559 3.17989Z" fill="white"/>
<path d="M16.7745 0.778216C16.7745 1.20642 16.4282 1.55643 15.9962 1.55643C15.568 1.55643 15.218 1.20642 15.218 0.778216C15.218 0.35001 15.5643 0 15.9962 0C16.4282 0 16.7745 0.35001 16.7745 0.778216Z" fill="white"/>
<path d="M17.1654 4.66559C17.1654 5.30976 16.6441 5.83105 15.9999 5.83105C15.3558 5.83105 14.8345 5.30976 14.8345 4.66559C14.8345 4.02142 15.3558 3.50012 15.9999 3.50012C16.6441 3.50012 17.1654 4.02142 17.1654 4.66559Z" fill="white"/>
<path d="M17.5528 21.8944C17.5528 21.0342 16.8564 20.3379 16 20.3379C15.1399 20.3379 14.4436 21.0342 14.4436 21.8944C14.4436 22.7545 15.1399 23.4471 16 23.4471C16.8564 23.4471 17.5528 22.7508 17.5528 21.8944Z" fill="white"/>
<path d="M16.7745 31.2218C16.7745 30.7936 16.4282 30.4436 15.9962 30.4436C15.568 30.4436 15.218 30.7936 15.218 31.2218C15.218 31.65 15.5643 32 15.9962 32C16.4282 31.9963 16.7745 31.65 16.7745 31.2218Z" fill="white"/>
<path d="M17.1654 27.3344C17.1654 26.6902 16.6441 26.1689 15.9999 26.1689C15.3558 26.1689 14.8345 26.6902 14.8345 27.3344C14.8345 27.9786 15.3558 28.4999 15.9999 28.4999C16.6441 28.4999 17.1654 27.9786 17.1654 27.3344Z" fill="white"/>
<path d="M12.9282 10.7312C13.5351 11.3382 13.5351 12.3212 12.9282 12.9281C12.3213 13.5351 11.3383 13.5351 10.7313 12.9281C10.1244 12.3212 10.1244 11.3382 10.7313 10.7312C11.3383 10.1243 12.3213 10.1243 12.9282 10.7312Z" fill="white"/>
<path d="M5.78632 4.68795C6.08792 4.99328 6.08792 5.48479 5.78632 5.78639C5.48099 6.09172 4.98948 6.09172 4.68787 5.78639C4.38627 5.48479 4.38627 4.98956 4.68787 4.68795C4.98948 4.38262 5.48099 4.38262 5.78632 4.68795Z" fill="white"/>
<path d="M8.80614 7.16034C9.26041 7.61461 9.26041 8.3556 8.80614 8.80987C8.35187 9.26414 7.61089 9.26414 7.15662 8.80987C6.70235 8.3556 6.70235 7.61461 7.15662 7.16034C7.61461 6.70607 8.35187 6.70607 8.80614 7.16034Z" fill="white"/>
<path d="M21.2651 19.0682C20.6582 18.4612 19.6752 18.4612 19.0682 19.0682C18.4613 19.6751 18.4613 20.6581 19.0682 21.2651C19.6752 21.872 20.6582 21.872 21.2651 21.2651C21.8721 20.6581 21.8721 19.6751 21.2651 19.0682Z" fill="white"/>
<path d="M27.3118 26.2136C27.0065 25.9083 26.515 25.9083 26.2134 26.2136C25.908 26.519 25.908 27.0105 26.2134 27.3121C26.515 27.6137 27.0102 27.6137 27.3118 27.3121C27.6134 27.0067 27.6134 26.5152 27.3118 26.2136Z" fill="white"/>
<path d="M24.8359 23.1901C24.3817 22.7359 23.6407 22.7359 23.1864 23.1901C22.7321 23.6444 22.7321 24.3854 23.1864 24.8397C23.6407 25.2939 24.3817 25.2939 24.8359 24.8397C25.2939 24.3854 25.2939 23.6444 24.8359 23.1901Z" fill="white"/>
<path d="M10.102 14.4436C10.9622 14.4436 11.6547 15.1399 11.6547 15.9963C11.6547 16.8564 10.9584 17.5527 10.102 17.5527C9.24189 17.5527 8.54932 16.8564 8.54932 15.9963C8.54932 15.1399 9.24562 14.4436 10.102 14.4436Z" fill="white"/>
<path d="M0.778218 15.2218C1.20642 15.2218 1.55644 15.5681 1.55644 16C1.55644 16.4282 1.20642 16.7782 0.778218 16.7782C0.350012 16.7782 0 16.4319 0 16C0 15.5681 0.350012 15.2218 0.778218 15.2218Z" fill="white"/>
<path d="M4.6618 14.8345C5.30597 14.8345 5.82727 15.3558 5.82727 16C5.82727 16.6442 5.30597 17.1655 4.6618 17.1655C4.01763 17.1655 3.49634 16.6442 3.49634 16C3.49634 15.3558 4.01763 14.8345 4.6618 14.8345Z" fill="white"/>
<path d="M21.8945 14.4436C21.0344 14.4436 20.3418 15.1399 20.3418 15.9963C20.3418 16.8564 21.0381 17.5527 21.8945 17.5527C22.7546 17.5527 23.4472 16.8564 23.4472 15.9963C23.4472 15.1399 22.7509 14.4436 21.8945 14.4436Z" fill="white"/>
<path d="M31.2182 15.2218C30.79 15.2218 30.4399 15.5681 30.4399 16C30.4399 16.4282 30.79 16.7782 31.2182 16.7782C31.6464 16.7782 31.9964 16.4319 31.9964 16C31.9964 15.5681 31.6501 15.2218 31.2182 15.2218Z" fill="white"/>
<path d="M27.3344 14.8345C26.6902 14.8345 26.1689 15.3558 26.1689 16C26.1689 16.6442 26.6902 17.1655 27.3344 17.1655C27.9786 17.1655 28.4999 16.6442 28.4999 16C28.4999 15.3558 27.9786 14.8345 27.3344 14.8345Z" fill="white"/>
<path d="M10.7313 19.0682C11.3383 18.4612 12.3213 18.4612 12.9282 19.0682C13.5351 19.6751 13.5351 20.6581 12.9282 21.2651C12.3213 21.872 11.3383 21.872 10.7313 21.2651C10.1244 20.6581 10.1244 19.6751 10.7313 19.0682Z" fill="white"/>
<path d="M4.68421 26.2136C4.98582 25.9083 5.48105 25.9083 5.78265 26.2136C6.08798 26.519 6.08798 27.0105 5.78265 27.3121C5.48105 27.6137 4.98582 27.6137 4.68421 27.3121C4.38261 27.0067 4.38261 26.5152 4.68421 26.2136Z" fill="white"/>
<path d="M7.16039 23.1901C7.61466 22.7359 8.35564 22.7359 8.80991 23.1901C9.26418 23.6444 9.26418 24.3854 8.80991 24.8397C8.35564 25.2939 7.61466 25.2939 7.16039 24.8397C6.7024 24.3854 6.7024 23.6444 7.16039 23.1901Z" fill="white"/>
<path d="M19.0682 10.7312C18.4613 11.3382 18.4613 12.3212 19.0682 12.9281C19.6752 13.5351 20.6582 13.5351 21.2651 12.9281C21.8721 12.3212 21.8721 11.3382 21.2651 10.7312C20.6582 10.1243 19.6752 10.1243 19.0682 10.7312Z" fill="white"/>
<path d="M26.2097 4.68795C25.9044 4.99328 25.9044 5.48479 26.2097 5.78639C26.5113 6.09172 27.0065 6.09172 27.3081 5.78639C27.6135 5.48479 27.6135 4.98956 27.3081 4.68795C27.0065 4.38262 26.515 4.38262 26.2097 4.68795Z" fill="white"/>
<path d="M23.1903 7.16034C22.736 7.61461 22.736 8.3556 23.1903 8.80987C23.6446 9.26414 24.3856 9.26414 24.8398 8.80987C25.2941 8.3556 25.2941 7.61461 24.8398 7.16034C24.3818 6.70607 23.6446 6.70607 23.1903 7.16034Z" fill="white"/>
<path d="M39.7856 19.59L41.033 18.5376C41.5007 19.1759 42.2803 19.746 43.1622 19.746C44.1416 19.746 44.7116 19.3074 44.7116 18.5815C44.7116 17.8311 44.2439 17.3877 43.2499 16.9492L42.4557 16.6081C40.9355 15.9406 40.1852 14.9759 40.1852 13.6701C40.1852 12.0524 41.6469 11 43.1817 11C44.3462 11 45.2671 11.3995 46.0077 12.2766L44.8724 13.4557C44.3462 12.832 43.8931 12.5592 43.1671 12.5592C42.485 12.5592 41.8321 12.9587 41.8321 13.6506C41.8321 14.3035 42.2852 14.7712 43.2938 15.2L44.0734 15.5557C45.4522 16.1501 46.3877 17.032 46.3877 18.4402C46.3877 20.1455 45.1258 21.3051 43.1768 21.3051C41.6615 21.3051 40.4239 20.6279 39.7856 19.59Z" fill="white"/>
<path d="M50.408 17.2756V11.1121H52.0548V17.3146C52.0548 18.8787 53.0342 19.7411 54.4667 19.7411C55.8992 19.7411 56.8688 18.8738 56.8688 17.3146V11.1121H58.5156V17.2756C58.5156 19.7606 56.8395 21.31 54.4667 21.31C52.0987 21.31 50.408 19.7606 50.408 17.2756Z" fill="white"/>
<path d="M64.265 14.7615V21.1931H62.6182V11L69.5029 17.5436V11.1121H71.1497V21.31L64.265 14.7615Z" fill="white"/>
<path d="M74.541 19.59L75.7883 18.5376C76.2561 19.1759 77.0357 19.746 77.9176 19.746C78.8969 19.746 79.467 19.3074 79.467 18.5815C79.467 17.8311 78.9993 17.3877 78.0053 16.9492L77.2111 16.6081C75.6909 15.9406 74.9405 14.9759 74.9405 13.6701C74.9405 12.0524 76.4023 11 77.9371 11C79.1016 11 80.0225 11.3995 80.7631 12.2766L79.6278 13.4557C79.1016 12.832 78.6485 12.5592 77.9225 12.5592C77.2403 12.5592 76.5874 12.9587 76.5874 13.6506C76.5874 14.3035 77.0406 14.7712 78.0491 15.2L78.8287 15.5557C80.2076 16.1501 81.1431 17.032 81.1431 18.4402C81.1431 20.1455 79.8812 21.3051 77.9322 21.3051C76.4169 21.3051 75.1793 20.6279 74.541 19.59Z" fill="white"/>
<path d="M84.7244 11.1121H86.3712V15.2877H91.3655V11.1121H93.0123V21.1931H91.3655V16.8761H86.3712V21.1931H84.7244V11.1121Z" fill="white"/>
<path d="M98.8927 11.1169H97.2458V21.1979H98.8927V11.1169Z" fill="white"/>
<path d="M104.769 14.7615V21.1931H103.122V11L110.007 17.5436V11.1121H111.654V21.31L104.769 14.7615Z" fill="white"/>
<path d="M115.883 11.1121H121.862V12.7346H117.53V15.2877H121.009V16.8761H117.53V19.5754H121.862V21.1931H115.883V11.1121Z" fill="white"/>
<path d="M133.789 15.9991C134.998 15.9991 135.704 15.3316 135.704 14.323C135.704 13.3144 134.993 12.6469 133.789 12.6469H132.498V15.9991H133.789ZM130.846 11.1121H133.858C135.943 11.1121 137.38 12.4179 137.38 14.3181C137.38 16.194 135.948 17.529 133.858 17.529H132.493V21.1931H130.846V11.1121Z" fill="white"/>
<path d="M140.771 11.1121H142.418V19.5608H146.662V21.1931H140.771V11.1121Z" fill="white"/>
<path d="M152.47 17.4462H155.267L153.873 14.4643L152.47 17.4462ZM153.878 11L158.804 21.1931H157.031L155.978 18.9518H151.764L150.711 21.1931H148.952L153.878 11Z" fill="white"/>
<path d="M166.439 12.7346H161.771V11.1121H169.265L163.998 19.5754H169.167V21.1931H161.172L166.439 12.7346Z" fill="white"/>
<path d="M175.287 17.4462H178.084L176.69 14.4643L175.287 17.4462ZM176.69 11L181.616 21.1931H179.843L178.795 18.9518H174.581L173.528 21.1931H171.769L176.69 11Z" fill="white"/>
</svg>
