<svg xmlns="http://www.w3.org/2000/svg" xmlns:xlink="http://www.w3.org/1999/xlink" width="372" zoomAndPan="magnify" viewBox="0 0 279 45.749998" height="61" preserveAspectRatio="xMidYMid meet" version="1.0"><defs><clipPath id="933f355d4c"><path d="M 95.484375 4.59375 L 105.398438 4.59375 L 105.398438 29.148438 L 95.484375 29.148438 Z M 95.484375 4.59375 " clip-rule="nonzero"/></clipPath><clipPath id="c7feaee4f4"><path d="M 117.628906 4.59375 L 120.273438 4.59375 L 120.273438 8.804688 L 117.628906 8.804688 Z M 110.355469 4.59375 L 113.003906 4.59375 L 113.003906 8.804688 L 110.355469 8.804688 Z M 110.355469 8.804688 L 120.273438 8.804688 L 120.273438 11.226562 L 110.355469 11.226562 Z M 110.355469 11.226562 L 113.003906 11.226562 L 113.003906 15.546875 L 110.355469 15.546875 Z M 117.628906 11.226562 L 120.273438 11.226562 L 120.273438 15.546875 L 117.628906 15.546875 Z M 117.628906 11.226562 " clip-rule="nonzero"/></clipPath><clipPath id="a4f76f363f"><path d="M 121.828125 4.398438 L 132.769531 4.398438 L 132.769531 15.871094 L 121.828125 15.871094 Z M 121.828125 4.398438 " clip-rule="nonzero"/></clipPath><clipPath id="de732c6fbb"><path d="M 131.273438 6.140625 C 130.820312 5.617188 130.257812 5.191406 129.597656 4.875 C 128.9375 4.558594 128.171875 4.398438 127.320312 4.398438 C 126.472656 4.398438 125.707031 4.558594 125.046875 4.875 C 124.386719 5.191406 123.824219 5.617188 123.371094 6.140625 C 122.921875 6.664062 122.574219 7.273438 122.335938 7.953125 C 122.101562 8.628906 121.984375 9.339844 121.984375 10.070312 C 121.984375 10.796875 122.101562 11.511719 122.335938 12.183594 C 122.570312 12.863281 122.921875 13.472656 123.371094 13.996094 C 123.824219 14.519531 124.386719 14.945312 125.046875 15.261719 C 125.707031 15.578125 126.472656 15.738281 127.320312 15.738281 C 128.171875 15.738281 128.9375 15.578125 129.597656 15.261719 C 130.257812 14.945312 130.820312 14.519531 131.273438 13.996094 C 131.722656 13.472656 132.070312 12.867188 132.308594 12.183594 C 132.542969 11.507812 132.664062 10.796875 132.664062 10.070312 C 132.664062 9.339844 132.542969 8.628906 132.308594 7.953125 C 132.070312 7.269531 131.722656 6.664062 131.273438 6.140625 M 127.320312 13.316406 C 126.882812 13.316406 126.503906 13.230469 126.1875 13.058594 C 125.867188 12.886719 125.597656 12.652344 125.378906 12.359375 C 125.160156 12.0625 124.988281 11.714844 124.878906 11.332031 C 124.769531 10.933594 124.710938 10.511719 124.710938 10.070312 C 124.710938 9.628906 124.765625 9.207031 124.878906 8.808594 C 124.988281 8.421875 125.15625 8.074219 125.378906 7.78125 C 125.597656 7.488281 125.867188 7.253906 126.1875 7.082031 C 126.503906 6.910156 126.882812 6.824219 127.320312 6.824219 C 127.75 6.824219 128.128906 6.910156 128.449219 7.082031 C 128.773438 7.253906 129.046875 7.488281 129.265625 7.777344 C 129.484375 8.074219 129.652344 8.421875 129.761719 8.808594 C 129.875 9.203125 129.933594 9.628906 129.933594 10.070312 C 129.933594 10.507812 129.875 10.933594 129.761719 11.328125 C 129.652344 11.714844 129.484375 12.0625 129.265625 12.359375 C 129.046875 12.648438 128.773438 12.886719 128.449219 13.058594 C 128.128906 13.226562 127.75 13.3125 127.320312 13.3125 " clip-rule="nonzero"/></clipPath><clipPath id="723e7fc5b2"><path d="M 150.59375 4.578125 L 161.359375 4.578125 L 161.359375 15.695312 L 150.59375 15.695312 Z M 150.59375 4.578125 " clip-rule="nonzero"/></clipPath><clipPath id="17313e3a84"><path d="M 154.730469 4.59375 L 150.738281 15.546875 L 153.597656 15.546875 L 154.273438 13.378906 L 157.644531 13.378906 L 158.351562 15.546875 L 161.246094 15.546875 L 157.316406 4.59375 Z M 155.96875 8.257812 L 156.910156 11.121094 L 155.039062 11.121094 Z M 155.96875 8.257812 " clip-rule="nonzero"/></clipPath><clipPath id="28b486c566"><path d="M 134.371094 4.59375 L 137.015625 4.59375 L 137.015625 13.039062 L 134.371094 13.039062 Z M 134.371094 13.039062 L 141.003906 13.039062 L 141.003906 15.546875 L 134.371094 15.546875 Z M 134.371094 13.039062 " clip-rule="nonzero"/></clipPath><clipPath id="76fdfa8e86"><path d="M 142.765625 4.59375 L 145.410156 4.59375 L 145.410156 13.039062 L 142.765625 13.039062 Z M 142.765625 13.039062 L 149.398438 13.039062 L 149.398438 15.546875 L 142.765625 15.546875 Z M 142.765625 13.039062 " clip-rule="nonzero"/></clipPath><clipPath id="defeb6e8da"><path d="M 163.121094 4.59375 L 172.296875 4.59375 L 172.296875 15.710938 L 163.121094 15.710938 Z M 163.121094 4.59375 " clip-rule="nonzero"/></clipPath><clipPath id="e20e3586fc"><path d="M 169.582031 4.59375 L 169.582031 10.863281 L 165.792969 4.59375 L 163.121094 4.59375 L 163.121094 15.546875 L 165.683594 15.546875 L 165.683594 9.160156 L 169.554688 15.546875 L 172.144531 15.546875 L 172.144531 4.59375 Z M 169.582031 4.59375 " clip-rule="nonzero"/></clipPath><clipPath id="656bd88708"><path d="M 121.71875 18.195312 L 124.363281 18.195312 L 124.363281 29.148438 L 121.71875 29.148438 Z M 121.71875 18.195312 " clip-rule="nonzero"/></clipPath><clipPath id="a9cec898ba"><path d="M 110.355469 18.152344 L 120.238281 18.152344 L 120.238281 29.269531 L 110.355469 29.269531 Z M 110.355469 18.152344 " clip-rule="nonzero"/></clipPath><clipPath id="1dc09cc7e8"><path d="M 115.261719 25.121094 L 113.246094 18.195312 L 110.355469 18.195312 L 113.925781 29.148438 L 116.523438 29.148438 L 120.078125 18.195312 L 117.230469 18.195312 Z M 115.261719 25.121094 " clip-rule="nonzero"/></clipPath><clipPath id="eb60eac984"><path d="M 126.125 18.195312 L 128.769531 18.195312 L 128.769531 26.640625 L 126.125 26.640625 Z M 126.125 26.640625 L 132.757812 26.640625 L 132.757812 29.148438 L 126.125 29.148438 Z M 126.125 26.640625 " clip-rule="nonzero"/></clipPath><clipPath id="d1a19081ee"><path d="M 134.519531 18.195312 L 137.164062 18.195312 L 137.164062 26.640625 L 134.519531 26.640625 Z M 134.519531 26.640625 L 141.152344 26.640625 L 141.152344 29.148438 L 134.519531 29.148438 Z M 134.519531 26.640625 " clip-rule="nonzero"/></clipPath><clipPath id="3409c1e2a7"><path d="M 142.476562 18.152344 L 153 18.152344 L 153 29.269531 L 142.476562 29.269531 Z M 142.476562 18.152344 " clip-rule="nonzero"/></clipPath><clipPath id="2b928a894c"><path d="M 146.484375 18.195312 L 142.492188 29.148438 L 145.347656 29.148438 L 146.023438 26.980469 L 149.398438 26.980469 L 150.101562 29.148438 L 152.996094 29.148438 L 149.066406 18.195312 Z M 148.660156 24.722656 L 146.789062 24.722656 L 147.722656 21.863281 Z M 148.660156 24.722656 " clip-rule="nonzero"/></clipPath><clipPath id="f5d316ff11"><path d="M 152.710938 17.976562 L 163.652344 17.976562 L 163.652344 29.445312 L 152.710938 29.445312 Z M 152.710938 17.976562 " clip-rule="nonzero"/></clipPath><clipPath id="6a542ef4aa"><path d="M 158.125 25.296875 L 160.523438 25.296875 C 160.488281 25.414062 160.441406 25.527344 160.386719 25.640625 C 160.28125 25.863281 160.132812 26.066406 159.941406 26.253906 C 159.75 26.441406 159.515625 26.597656 159.242188 26.714844 C 158.96875 26.832031 158.644531 26.890625 158.273438 26.890625 C 157.851562 26.890625 157.472656 26.804688 157.140625 26.632812 C 156.808594 26.457031 156.515625 26.222656 156.28125 25.925781 C 156.039062 25.628906 155.855469 25.28125 155.722656 24.890625 C 155.589844 24.5 155.523438 24.078125 155.523438 23.644531 C 155.523438 23.125 155.59375 22.65625 155.730469 22.25 C 155.863281 21.851562 156.054688 21.511719 156.289062 21.234375 C 156.523438 20.964844 156.800781 20.757812 157.117188 20.613281 C 157.429688 20.46875 157.773438 20.398438 158.132812 20.398438 C 158.800781 20.398438 159.3125 20.519531 159.664062 20.757812 C 160.019531 21.003906 160.269531 21.324219 160.433594 21.734375 L 160.511719 21.929688 L 163.269531 21.753906 L 163.140625 21.390625 C 163.035156 21.105469 162.886719 20.769531 162.699219 20.390625 C 162.5 19.988281 162.207031 19.605469 161.828125 19.253906 C 161.449219 18.898438 160.960938 18.597656 160.371094 18.347656 C 159.777344 18.101562 159.023438 17.976562 158.132812 17.976562 C 157.320312 17.976562 156.578125 18.136719 155.917969 18.453125 C 155.265625 18.765625 154.703125 19.191406 154.242188 19.714844 C 153.78125 20.234375 153.421875 20.84375 153.171875 21.523438 C 152.921875 22.199219 152.796875 22.914062 152.796875 23.644531 C 152.796875 24.375 152.921875 25.085938 153.171875 25.765625 C 153.421875 26.445312 153.78125 27.054688 154.242188 27.574219 C 154.703125 28.097656 155.265625 28.519531 155.917969 28.835938 C 156.578125 29.152344 157.320312 29.3125 158.132812 29.3125 C 158.882812 29.3125 159.589844 29.1875 160.226562 28.933594 C 160.871094 28.679688 161.441406 28.292969 161.917969 27.777344 C 162.394531 27.269531 162.773438 26.628906 163.050781 25.871094 C 163.320312 25.125 163.46875 24.242188 163.488281 23.25 L 163.492188 22.957031 L 158.125 22.957031 Z M 158.125 25.296875 " clip-rule="nonzero"/></clipPath><clipPath id="c0b1ec158e"><path d="M 164.941406 18.195312 L 172.144531 18.195312 L 172.144531 20.621094 L 164.941406 20.621094 Z M 164.941406 20.621094 L 167.589844 20.621094 L 167.589844 22.40625 L 164.941406 22.40625 Z M 164.941406 22.40625 L 172.019531 22.40625 L 172.019531 24.828125 L 164.941406 24.828125 Z M 164.941406 24.828125 L 167.589844 24.828125 L 167.589844 26.726562 L 164.941406 26.726562 Z M 164.941406 26.726562 L 172.140625 26.726562 L 172.140625 29.148438 L 164.941406 29.148438 Z M 164.941406 26.726562 " clip-rule="nonzero"/></clipPath><clipPath id="1c790dc818"><path d="M 95.867188 36.449219 L 172.460938 36.449219 L 172.460938 42 L 95.867188 42 Z M 95.867188 36.449219 " clip-rule="nonzero"/></clipPath><clipPath id="e7ace45871"><path d="M 99.71875 37.933594 C 99.71875 37.832031 99.695312 37.703125 99.652344 37.535156 C 99.609375 37.371094 99.519531 37.207031 99.382812 37.046875 C 99.246094 36.886719 99.054688 36.746094 98.804688 36.628906 C 98.550781 36.511719 98.222656 36.449219 97.808594 36.449219 C 97.464844 36.449219 97.175781 36.503906 96.9375 36.613281 C 96.703125 36.722656 96.511719 36.859375 96.367188 37.027344 C 96.222656 37.191406 96.121094 37.371094 96.054688 37.5625 C 95.992188 37.757812 95.960938 37.941406 95.960938 38.109375 C 95.960938 38.261719 95.984375 38.40625 96.035156 38.542969 C 96.082031 38.679688 96.152344 38.804688 96.238281 38.921875 C 96.324219 39.039062 96.433594 39.140625 96.554688 39.230469 C 96.679688 39.320312 96.8125 39.390625 96.960938 39.445312 L 98.121094 39.863281 C 98.253906 39.910156 98.363281 39.957031 98.445312 40 C 98.527344 40.046875 98.59375 40.09375 98.640625 40.136719 C 98.6875 40.183594 98.722656 40.238281 98.738281 40.292969 C 98.757812 40.351562 98.765625 40.414062 98.765625 40.484375 C 98.765625 40.589844 98.738281 40.679688 98.683594 40.753906 C 98.625 40.828125 98.554688 40.886719 98.464844 40.933594 C 98.378906 40.980469 98.285156 41.015625 98.179688 41.039062 C 98.078125 41.0625 97.984375 41.074219 97.894531 41.074219 C 97.765625 41.074219 97.644531 41.0625 97.523438 41.035156 C 97.40625 41.003906 97.304688 40.960938 97.214844 40.894531 C 97.128906 40.828125 97.058594 40.75 97.003906 40.648438 C 96.953125 40.546875 96.929688 40.429688 96.929688 40.285156 L 95.867188 40.308594 C 95.867188 40.390625 95.875 40.484375 95.886719 40.601562 C 95.902344 40.714844 95.933594 40.832031 95.980469 40.957031 C 96.027344 41.078125 96.09375 41.203125 96.183594 41.324219 C 96.273438 41.445312 96.390625 41.558594 96.542969 41.65625 C 96.695312 41.75 96.878906 41.832031 97.097656 41.894531 C 97.320312 41.953125 97.582031 41.984375 97.890625 41.984375 C 98.257812 41.984375 98.566406 41.929688 98.816406 41.820312 C 99.066406 41.714844 99.265625 41.578125 99.417969 41.414062 C 99.566406 41.253906 99.675781 41.074219 99.738281 40.886719 C 99.804688 40.695312 99.835938 40.519531 99.835938 40.355469 C 99.835938 40.152344 99.804688 39.972656 99.746094 39.808594 C 99.6875 39.648438 99.601562 39.515625 99.492188 39.398438 C 99.382812 39.28125 99.253906 39.183594 99.109375 39.101562 C 98.960938 39.019531 98.796875 38.949219 98.621094 38.894531 L 97.644531 38.582031 C 97.574219 38.5625 97.507812 38.535156 97.433594 38.5 C 97.359375 38.464844 97.292969 38.421875 97.234375 38.371094 C 97.175781 38.324219 97.128906 38.261719 97.085938 38.195312 C 97.046875 38.128906 97.027344 38.046875 97.027344 37.949219 C 97.027344 37.769531 97.101562 37.628906 97.25 37.519531 C 97.402344 37.414062 97.609375 37.363281 97.878906 37.363281 C 98.09375 37.363281 98.273438 37.414062 98.429688 37.519531 C 98.585938 37.628906 98.660156 37.773438 98.660156 37.957031 Z M 117.058594 41.886719 L 118.125 41.886719 L 118.125 36.550781 L 117.058594 36.550781 L 117.058594 38.714844 L 114.847656 38.714844 L 114.847656 36.550781 L 113.78125 36.550781 L 113.78125 41.886719 L 114.847656 41.886719 L 114.847656 39.664062 L 117.058594 39.664062 Z M 132.234375 40.257812 C 132.347656 40.589844 132.515625 40.882812 132.734375 41.140625 C 132.953125 41.394531 133.226562 41.601562 133.546875 41.753906 C 133.867188 41.90625 134.238281 41.984375 134.652344 41.984375 C 135.070312 41.984375 135.441406 41.910156 135.761719 41.753906 C 136.082031 41.597656 136.355469 41.394531 136.574219 41.140625 C 136.792969 40.882812 136.960938 40.589844 137.078125 40.257812 C 137.191406 39.925781 137.25 39.578125 137.25 39.21875 C 137.25 38.855469 137.191406 38.511719 137.078125 38.179688 C 136.960938 37.84375 136.792969 37.550781 136.574219 37.296875 C 136.355469 37.042969 136.082031 36.835938 135.761719 36.679688 C 135.4375 36.527344 135.074219 36.449219 134.65625 36.449219 C 134.238281 36.449219 133.871094 36.527344 133.550781 36.679688 C 133.226562 36.835938 132.957031 37.039062 132.738281 37.296875 C 132.515625 37.550781 132.347656 37.847656 132.234375 38.179688 C 132.121094 38.507812 132.058594 38.859375 132.058594 39.21875 C 132.058594 39.574219 132.117188 39.921875 132.234375 40.257812 M 136.054688 39.90625 C 135.992188 40.121094 135.898438 40.316406 135.773438 40.484375 C 135.648438 40.652344 135.496094 40.785156 135.308594 40.886719 C 135.121094 40.984375 134.902344 41.035156 134.65625 41.035156 C 134.40625 41.035156 134.1875 40.984375 134.003906 40.886719 C 133.820312 40.785156 133.664062 40.652344 133.539062 40.484375 C 133.414062 40.316406 133.320312 40.125 133.261719 39.90625 C 133.199219 39.6875 133.167969 39.460938 133.167969 39.21875 C 133.167969 38.976562 133.199219 38.746094 133.261719 38.527344 C 133.320312 38.308594 133.414062 38.121094 133.539062 37.949219 C 133.664062 37.78125 133.820312 37.648438 134.003906 37.550781 C 134.1875 37.449219 134.40625 37.402344 134.65625 37.402344 C 134.902344 37.402344 135.121094 37.449219 135.308594 37.550781 C 135.496094 37.648438 135.648438 37.78125 135.773438 37.949219 C 135.898438 38.117188 135.992188 38.3125 136.054688 38.527344 C 136.117188 38.746094 136.148438 38.976562 136.148438 39.21875 C 136.148438 39.460938 136.117188 39.6875 136.054688 39.90625 M 151.175781 41.886719 L 152.238281 41.886719 L 152.238281 39.933594 L 152.996094 39.933594 C 153.210938 39.933594 153.421875 39.902344 153.632812 39.84375 C 153.84375 39.78125 154.03125 39.683594 154.199219 39.546875 C 154.371094 39.410156 154.503906 39.238281 154.609375 39.027344 C 154.710938 38.816406 154.765625 38.554688 154.765625 38.246094 C 154.765625 37.921875 154.710938 37.648438 154.597656 37.429688 C 154.484375 37.214844 154.335938 37.039062 154.15625 36.910156 C 153.980469 36.78125 153.777344 36.6875 153.558594 36.632812 C 153.335938 36.578125 153.121094 36.550781 152.914062 36.550781 L 151.175781 36.550781 Z M 152.238281 39.027344 L 152.238281 37.457031 L 152.84375 37.457031 C 152.992188 37.457031 153.121094 37.480469 153.230469 37.527344 C 153.339844 37.574219 153.429688 37.636719 153.5 37.714844 C 153.566406 37.789062 153.617188 37.875 153.652344 37.96875 C 153.683594 38.066406 153.699219 38.15625 153.699219 38.246094 C 153.699219 38.335938 153.6875 38.425781 153.664062 38.519531 C 153.640625 38.609375 153.597656 38.695312 153.535156 38.769531 C 153.46875 38.847656 153.382812 38.910156 153.265625 38.957031 C 153.152344 39.003906 153.011719 39.027344 152.835938 39.027344 Z M 172.171875 37.933594 C 172.171875 37.832031 172.148438 37.703125 172.105469 37.535156 C 172.0625 37.371094 171.972656 37.207031 171.835938 37.046875 C 171.699219 36.886719 171.507812 36.746094 171.257812 36.628906 C 171.003906 36.511719 170.675781 36.449219 170.265625 36.449219 C 169.917969 36.449219 169.628906 36.503906 169.390625 36.613281 C 169.15625 36.722656 168.964844 36.859375 168.820312 37.027344 C 168.675781 37.191406 168.570312 37.371094 168.507812 37.5625 C 168.445312 37.757812 168.414062 37.941406 168.414062 38.109375 C 168.414062 38.261719 168.4375 38.40625 168.488281 38.542969 C 168.535156 38.679688 168.605469 38.804688 168.695312 38.921875 C 168.78125 39.039062 168.886719 39.140625 169.007812 39.230469 C 169.132812 39.320312 169.265625 39.390625 169.414062 39.445312 L 170.578125 39.863281 C 170.710938 39.910156 170.816406 39.957031 170.898438 40 C 170.984375 40.046875 171.046875 40.09375 171.09375 40.136719 C 171.144531 40.183594 171.175781 40.238281 171.195312 40.292969 C 171.214844 40.351562 171.222656 40.414062 171.222656 40.484375 C 171.222656 40.589844 171.195312 40.679688 171.136719 40.753906 C 171.082031 40.828125 171.007812 40.886719 170.921875 40.933594 C 170.832031 40.980469 170.738281 41.015625 170.636719 41.039062 C 170.535156 41.0625 170.4375 41.074219 170.347656 41.074219 C 170.21875 41.074219 170.097656 41.0625 169.980469 41.035156 C 169.863281 41.003906 169.757812 40.960938 169.671875 40.894531 C 169.582031 40.828125 169.515625 40.75 169.464844 40.648438 C 169.410156 40.546875 169.386719 40.429688 169.386719 40.285156 L 168.320312 40.308594 C 168.320312 40.390625 168.328125 40.484375 168.34375 40.597656 C 168.355469 40.714844 168.386719 40.832031 168.4375 40.953125 C 168.484375 41.078125 168.550781 41.199219 168.636719 41.324219 C 168.722656 41.445312 168.84375 41.554688 168.996094 41.652344 C 169.148438 41.75 169.332031 41.828125 169.554688 41.890625 C 169.773438 41.953125 170.035156 41.984375 170.34375 41.984375 C 170.710938 41.984375 171.019531 41.929688 171.269531 41.820312 C 171.519531 41.710938 171.71875 41.574219 171.871094 41.414062 C 172.023438 41.25 172.128906 41.074219 172.191406 40.882812 C 172.257812 40.691406 172.289062 40.515625 172.289062 40.351562 C 172.289062 40.148438 172.257812 39.96875 172.199219 39.808594 C 172.140625 39.648438 172.058594 39.515625 171.949219 39.398438 C 171.839844 39.28125 171.710938 39.183594 171.5625 39.097656 C 171.414062 39.015625 171.25 38.949219 171.074219 38.890625 L 170.097656 38.578125 C 170.03125 38.558594 169.960938 38.53125 169.886719 38.496094 C 169.816406 38.460938 169.75 38.417969 169.691406 38.371094 C 169.632812 38.320312 169.582031 38.261719 169.539062 38.195312 C 169.5 38.125 169.480469 38.042969 169.480469 37.949219 C 169.480469 37.769531 169.554688 37.625 169.703125 37.519531 C 169.855469 37.414062 170.0625 37.359375 170.332031 37.359375 C 170.546875 37.359375 170.726562 37.414062 170.882812 37.519531 C 171.039062 37.625 171.113281 37.773438 171.113281 37.957031 Z M 172.171875 37.933594 " clip-rule="nonzero"/></clipPath><clipPath id="b70ed08b4b"><path d="M 174.039062 4.59375 L 183.570312 4.59375 L 183.570312 15.710938 L 174.039062 15.710938 Z M 174.039062 4.59375 " clip-rule="nonzero"/></clipPath><clipPath id="b987db0208"><path d="M 183.160156 7.753906 C 182.921875 7.070312 182.570312 6.488281 182.117188 6.015625 C 181.660156 5.546875 181.09375 5.1875 180.433594 4.945312 C 179.785156 4.714844 179.042969 4.59375 178.234375 4.59375 L 174.039062 4.59375 L 174.039062 15.546875 L 178.289062 15.546875 C 178.984375 15.546875 179.652344 15.421875 180.28125 15.183594 C 180.914062 14.941406 181.476562 14.578125 181.953125 14.109375 C 182.429688 13.644531 182.8125 13.0625 183.09375 12.386719 C 183.378906 11.707031 183.515625 10.929688 183.515625 10.066406 C 183.515625 9.203125 183.394531 8.421875 183.160156 7.75 M 176.683594 6.929688 L 177.984375 6.929688 C 178.527344 6.929688 178.980469 7.019531 179.335938 7.191406 C 179.6875 7.367188 179.972656 7.59375 180.183594 7.875 C 180.398438 8.15625 180.554688 8.488281 180.644531 8.859375 C 180.742188 9.246094 180.789062 9.648438 180.789062 10.054688 C 180.789062 10.433594 180.738281 10.820312 180.636719 11.203125 C 180.539062 11.578125 180.386719 11.917969 180.171875 12.210938 C 179.960938 12.503906 179.691406 12.746094 179.359375 12.929688 C 179.039062 13.113281 178.628906 13.203125 178.148438 13.203125 L 176.683594 13.203125 Z M 176.683594 6.929688 " clip-rule="nonzero"/></clipPath></defs><g clip-path="url(#933f355d4c)"><path fill="#c96319" d="M 95.484375 4.59375 L 105.367188 4.59375 L 105.367188 29.125 L 95.484375 29.125 Z M 95.484375 4.59375 " fill-opacity="1" fill-rule="nonzero"/></g><g clip-path="url(#c7feaee4f4)"><path fill="#231f20" d="M 109.476562 3.515625 L 162.066406 3.515625 L 162.066406 16.578125 L 109.476562 16.578125 Z M 109.476562 3.515625 " fill-opacity="1" fill-rule="nonzero"/></g><g clip-path="url(#a4f76f363f)"><g clip-path="url(#de732c6fbb)"><path fill="#231f20" d="M 109.476562 3.515625 L 162.066406 3.515625 L 162.066406 16.578125 L 109.476562 16.578125 Z M 109.476562 3.515625 " fill-opacity="1" fill-rule="nonzero"/></g></g><g clip-path="url(#723e7fc5b2)"><g clip-path="url(#17313e3a84)"><path fill="#231f20" d="M 109.476562 3.515625 L 162.066406 3.515625 L 162.066406 16.578125 L 109.476562 16.578125 Z M 109.476562 3.515625 " fill-opacity="1" fill-rule="nonzero"/></g></g><g clip-path="url(#28b486c566)"><path fill="#231f20" d="M 109.476562 3.515625 L 162.066406 3.515625 L 162.066406 16.578125 L 109.476562 16.578125 Z M 109.476562 3.515625 " fill-opacity="1" fill-rule="nonzero"/></g><g clip-path="url(#76fdfa8e86)"><path fill="#231f20" d="M 109.476562 3.515625 L 162.066406 3.515625 L 162.066406 16.578125 L 109.476562 16.578125 Z M 109.476562 3.515625 " fill-opacity="1" fill-rule="nonzero"/></g><g clip-path="url(#defeb6e8da)"><g clip-path="url(#e20e3586fc)"><path fill="#231f20" d="M 163.121094 4.59375 L 172.121094 4.59375 L 172.121094 15.535156 L 163.121094 15.535156 Z M 163.121094 4.59375 " fill-opacity="1" fill-rule="nonzero"/></g></g><g clip-path="url(#656bd88708)"><path fill="#231f20" d="M 109.476562 17.09375 L 173.007812 17.09375 L 173.007812 30.152344 L 109.476562 30.152344 Z M 109.476562 17.09375 " fill-opacity="1" fill-rule="nonzero"/></g><g clip-path="url(#a9cec898ba)"><g clip-path="url(#1dc09cc7e8)"><path fill="#231f20" d="M 109.476562 17.09375 L 173.007812 17.09375 L 173.007812 30.152344 L 109.476562 30.152344 Z M 109.476562 17.09375 " fill-opacity="1" fill-rule="nonzero"/></g></g><g clip-path="url(#eb60eac984)"><path fill="#231f20" d="M 109.476562 17.09375 L 173.007812 17.09375 L 173.007812 30.152344 L 109.476562 30.152344 Z M 109.476562 17.09375 " fill-opacity="1" fill-rule="nonzero"/></g><g clip-path="url(#d1a19081ee)"><path fill="#231f20" d="M 109.476562 17.09375 L 173.007812 17.09375 L 173.007812 30.152344 L 109.476562 30.152344 Z M 109.476562 17.09375 " fill-opacity="1" fill-rule="nonzero"/></g><g clip-path="url(#3409c1e2a7)"><g clip-path="url(#2b928a894c)"><path fill="#231f20" d="M 109.476562 17.09375 L 173.007812 17.09375 L 173.007812 30.152344 L 109.476562 30.152344 Z M 109.476562 17.09375 " fill-opacity="1" fill-rule="nonzero"/></g></g><g clip-path="url(#f5d316ff11)"><g clip-path="url(#6a542ef4aa)"><path fill="#231f20" d="M 109.476562 17.09375 L 173.007812 17.09375 L 173.007812 30.152344 L 109.476562 30.152344 Z M 109.476562 17.09375 " fill-opacity="1" fill-rule="nonzero"/></g></g><g clip-path="url(#c0b1ec158e)"><path fill="#231f20" d="M 109.476562 17.09375 L 173.007812 17.09375 L 173.007812 30.152344 L 109.476562 30.152344 Z M 109.476562 17.09375 " fill-opacity="1" fill-rule="nonzero"/></g><g clip-path="url(#1c790dc818)"><g clip-path="url(#e7ace45871)"><path fill="#231f20" d="M 95.867188 36.449219 L 172.28125 36.449219 L 172.28125 41.921875 L 95.867188 41.921875 Z M 95.867188 36.449219 " fill-opacity="1" fill-rule="nonzero"/></g></g><g clip-path="url(#b70ed08b4b)"><g clip-path="url(#b987db0208)"><path fill="#231f20" d="M 174.039062 4.59375 L 183.570312 4.59375 L 183.570312 15.535156 L 174.039062 15.535156 Z M 174.039062 4.59375 " fill-opacity="1" fill-rule="nonzero"/></g></g></svg>