<svg id="Layer_1" data-name="Layer 1" xmlns="http://www.w3.org/2000/svg" viewBox="0 0 533.21 107.07"><defs><style>.cls-1{fill:#f04e6e;}</style></defs><path class="cls-1" d="M129.49,93.64H108.33L81.53,13.33h21l16.17,56.32H119l16.28-56.32h21.17Z"/><path class="cls-1" d="M165.42,93.64V13.33h20.51V93.64Z"/><path class="cls-1" d="M201,93.64V13.33h20.51V75.62h23.76v18Z"/><path class="cls-1" d="M253.87,93.64V13.33h20.51V75.62h23.77v18Z"/><path class="cls-1" d="M361.21,93.64,357.3,82H329.41l-4.23,11.62h-22l32.23-80.31h16.17l31.9,80.31ZM343.62,38.29h-.32l-8.25,27.46h16.82Z"/><path class="cls-1" d="M425.46,95.26c-23.66,0-42.65-18.34-42.65-42.1,0-24.1,19.43-41.35,43-41.35,17.36,0,35.27,11.29,40.15,28.43h-23a19.72,19.72,0,0,0-17.69-10.42c-13.13,0-21.92,10.64-21.92,23.34,0,13.13,8.36,24.09,22,24.09,8.79,0,16.72-4,19.21-12.92h-24V48h47.64c.11,1.41.11,2.82.11,4.23C468.33,76.81,450.09,95.26,425.46,95.26Z"/><path class="cls-1" d="M479,93.64V13.33h44.6v18h-25V43.82h24.2v18h-24.2V75.62h25v18Z"/><path class="cls-1" d="M78.51,32.88A18.77,18.77,0,0,0,59.74,14.11H28.41A18.78,18.78,0,0,0,9.63,32.88V61.94A18.78,18.78,0,0,0,28.41,80.72H50.12c20.39-.4,16.61,12.82,16.61,12.82,11.51-6.87,11.9-25.76,11.76-31.19,0-.14,0-.27,0-.41ZM49.34,45.61a22.77,22.77,0,0,1-.56,2.73A38.71,38.71,0,0,1,46.51,55c-.33.71-1.11,2-2.06,2a2.74,2.74,0,0,1-2.59-2.46,7.64,7.64,0,0,1,.91-2.77l.29-.71c.51-1.26,1-2.51,1.44-3.8a13.75,13.75,0,0,0,.64-2.34c0-.3,0-2,0-2a53.4,53.4,0,0,0-5.6,6l-.35.57a31.48,31.48,0,0,0-2.37,3.92l-.34.79c-.63,1.56-1,2.47-2.07,2.46A2.24,2.24,0,0,1,32.85,56a2.73,2.73,0,0,1-1-2.11,6.25,6.25,0,0,1,.9-2.46,21.45,21.45,0,0,0,1.08-2.79,7.38,7.38,0,0,0,.3-1.21,32.74,32.74,0,0,0,.44-5s-1,1.18-1.2,1.46q-.84,1-1.71,2a41.1,41.1,0,0,0-4,5.11,20.9,20.9,0,0,0-2.2,5,2.33,2.33,0,0,1-2.22,2c-1.81,0-2.44-2.34-2.42-3.36a6,6,0,0,1,.86-2.43l.17-.41a24.85,24.85,0,0,0,1.71-6.22,42.39,42.39,0,0,0,.15-6.17v-.92c0-1.9,2.18-2.73,3.85-.88a3.58,3.58,0,0,1,.82,2.64c0,.87-.32,3.08-.32,3.08s1.69-2.29,2.12-2.82c1.3-1.59,2.54-3.33,4.89-3.34,1.9,0,3.92,2.21,3.91,6a1.27,1.27,0,0,1,0,.2c2-2.32,5.1-5.39,6.71-5.38,2.08,0,2.58,1.5,3.22,3.16A9.4,9.4,0,0,1,49.34,45.61Zm21-3c-.79,2.89-1.87,7.71-2.87,11.56s-2,8-4.73,11.14a10.22,10.22,0,0,1-2.3,2,6.05,6.05,0,0,1-2.93.86h-.05c-2.5,0-3.67-1.77-3.68-2.92a1.9,1.9,0,0,1,1.66-1.89h.4l.59.4a.88.88,0,0,0,.71.26c.38,0,1.86-.24,3.73-3.74a28.5,28.5,0,0,0,3-10.61v0c0,.37-1.29,1.36-1.56,1.63a44.22,44.22,0,0,1-3.54,3c-1.39,1.11-3.08,2.79-5,2.8-1.43,0-3.07-1-3.1-3.9,0-2.11,1.82-7,3.57-11.34l.55-1.41a4.42,4.42,0,0,0,.13-.61,3.7,3.7,0,0,1,.3-1.21,2.08,2.08,0,0,1,1.71-1.08,2.71,2.71,0,0,1,2.45,2.31,11,11,0,0,1-1.2,3.84c-1.06,2.6-2.16,5.22-3,7.89l.38-.26a45.55,45.55,0,0,0,9.62-9.46,18,18,0,0,0,1.27-3.21c.16-.58.67-2.34,2.24-2.33s2.07,2,2.2,2.5C71.1,39.62,70.54,41.74,70.29,42.65Z"/></svg>