<?xml version="1.0" encoding="UTF-8"?><svg id="a" xmlns="http://www.w3.org/2000/svg" viewBox="0 0 389.2 314.97"><defs><style>.b{fill:#fff;stroke:#fff;stroke-linecap:round;stroke-linejoin:round;stroke-width:.2px;}</style></defs><path class="b" d="M34.57,273.33c3.24,0,5.58,2.87,5.58,7.11-.22,4.7-1.65,9.27-4.14,13.27-2.46,4-5.14,6-8.07,6s-5-2.43-5-6.71,1.86-10.15,5.28-15.24c2-2.94,3.78-4.4,6.34-4.4m3.08,20.93c.25,4.73,2.57,7.05,6.9,7.05,3.21-.09,6.27-1.38,8.57-3.62,4.81-4.63,7.48-11.05,7.36-17.73,0-13.82-9.89-22.83-25.3-22.83-7.7-.14-15.2,2.47-21.14,7.36-7.09,5.59-11.21,14.13-11.17,23.16-.2,8.26,3.61,16.1,10.22,21.05,5.25,4,12.15,6.14,20.51,6.14,7.89-.02,15.56-2.6,21.86-7.35l-1-1.25c-5.89,4.42-13.05,6.82-20.41,6.86-7.73,0-14.3-2.23-19.37-6.52-5.48-4.71-7.89-10.27-7.89-18,0-9,3-16.47,8.76-22.05,5.41-5.21,12.27-7.78,20.56-7.78,6.32,0,12.12,2,16.06,5.52,4.44,3.74,6.93,9.3,6.76,15.11,0,7.87-3.08,14.27-8.37,18.21-1.56,1.25-3.46,2.01-5.45,2.17-1.92,0-3.12-1.25-3.12-3.37,.02-1.23,.21-2.46,.59-3.63l5.65-20.32h-4.8l-1.74,6c-.94-4.3-3.48-6.47-7.34-6.47-3.78,.19-7.35,1.79-10,4.48-3.78,3.56-5.99,8.47-6.14,13.66,0,6.74,3.66,11.17,9.15,11.17,4.18,0,7.59-2.32,10.32-7.05m33.37,9.43c2.96,1.68,6.29,2.61,9.7,2.72,7.92,0,13.62-5.21,13.62-11.14,0-4.91-2.88-7.67-8.52-10.34-5.82-2.8-9.71-4-9.71-8.53,0-3.25,2.51-5.51,6.36-5.51,4.23,0,7.35,3,8.24,8.05h1.54c.07-.73,.1-1.46,.09-2.19-.02-2.01-.16-4.01-.42-6-2.87-1.36-6.01-2.04-9.19-2-7.52,0-12,4.34-12,10.72,0,5.05,3.49,7.73,10.09,10.91,4.6,2.27,7.21,3.57,7.21,7.33s-2.54,6.26-6.56,6.26c-4.67,0-8.26-3.46-9.78-9.92l-1.63,.27,.96,9.37Zm31.9-16c-.15,10.14,7.95,18.49,18.1,18.64,.09,0,.17,0,.26,0,10.58-.04,19.12-8.65,19.07-19.23,0-.08,0-.17,0-.25,0-10.17-7.74-18.14-18.66-18.14s-18.77,8.09-18.77,19m7.32-1.15c0-9.74,4.81-15.72,10.72-15.72,6.88,0,11.86,6.22,11.86,17s-4.62,16.21-10.8,16.21c-6.58,0-11.78-6.69-11.78-17.48m38.47,18.89c2.09-.14,4.5-.25,7.15-.25s6.2,.11,10.21,.25v-1.91c-4.73-.18-5.5-.4-5.5-4.12v-22.44c3.39-2.28,6.61-3.51,9.35-3.51,4.3,0,6.59,2.72,6.59,8v17.51c0,3.89-.12,4.34-5.34,4.44v2c3.13-.09,6-.25,8.6-.25,2.32,0,5,.16,8.16,.25v-2c-4.95-.16-5.12-.5-5.12-4.32v-21.8c3.52-2.63,6.92-3.86,9.72-3.86,4.39,0,6.5,2.65,6.5,8.13v17.19c0,4,0,4.7-5.24,4.7v2c3.13-.09,6-.25,8.55-.25,2.32,0,5,.16,8.14,.25v-2c-4.79-.1-4.93-.82-4.93-4.65v-15.49c0-9.56-1.71-14.48-9.18-14.48-2.71,0-7.22,2-13.73,6-2.06-4-4.94-6-8.82-6-2.65,0-7.05,1.87-13.29,5.83v-6.21h-1.88c-2.91,1.65-6,2.97-9.2,3.94v1c4.66,1.51,4.74,3,4.74,7.11v18.67c0,3.59-.34,4.19-5.48,4.29v1.98Zm98.77-9.53c-3.93,3.62-7.63,5.33-11.15,5.33-6.41,0-11.62-5.92-11.62-15.37,0-1,0-1.92,.14-2.95h20.52c2.35,0,3.05-.22,3.05-2.19,0-6.07-5.19-12-13.36-12-8.82,0-16.78,8.4-16.78,19.58s6.33,18.1,14.76,18.1c6.24,0,11.06-3,15.61-9.22l-1.17-1.28Zm-22.3-15.68c1.11-5.76,4.82-9.11,9.32-9.11,3.68-.19,6.81,2.64,7,6.32,.01,.23,.01,.45,0,.68,0,2-.65,2.16-3,2.16l-13.32-.05Zm31.76,25.21c2.4-.14,5-.25,7.79-.25,4.48,0,8.72,.11,12.41,.25v-1.91c-7.06-.08-8.32,.23-8.32-4.12v-15.33c0-5.77,2.16-8.56,6.25-8.56,2.23,0,3.45,1.82,5.13,1.82,2,0,3.38-1.59,3.38-4.29,0-2.52-1.62-4-4.42-4-3.76,0-6.9,2.61-10.46,7.67v-8.28h-1.81c-2.93,1.67-6.04,2.99-9.27,3.94v1c4.72,1.51,4.77,3,4.77,7.11v18.67c0,3.59-.31,4.19-5.45,4.29v1.99Zm35.07-1.77c2.93,1.69,6.23,2.62,9.61,2.72,7.95,0,13.63-5.21,13.63-11.14,0-4.91-2.87-7.67-8.47-10.34-5.87-2.8-9.73-4-9.73-8.53,0-3.25,2.47-5.51,6.34-5.51,4.23,0,7.37,3,8.28,8.05h1.5c.07-.73,.09-1.46,.08-2.19-.01-2.01-.14-4.01-.39-6-2.89-1.36-6.05-2.05-9.25-2-7.45,0-11.93,4.34-11.93,10.72,0,5.05,3.52,7.73,10.07,10.91,4.6,2.27,7.24,3.57,7.24,7.33s-2.57,6.26-6.56,6.26c-4.66,0-8.28-3.46-9.78-9.92l-1.61,.27,.97,9.37Zm60.7-7.76c-3.87,3.62-7.61,5.33-11.14,5.33-6.37,0-11.6-5.92-11.6-15.37,0-1,.07-1.92,.15-2.95h20.55c2.31,0,3-.22,3-2.19,0-6.07-5.26-12-13.42-12-8.81,0-16.74,8.4-16.74,19.58s6.3,18.1,14.73,18.1c6.25,0,11.1-3,15.67-9.22l-1.2-1.28Zm-22.28-15.68c1.1-5.76,4.8-9.11,9.31-9.11,3.68-.19,6.81,2.64,7,6.32,.01,.23,.01,.45,0,.68,0,2-.63,2.16-3,2.16l-13.31-.05Zm53.28,19.36c-1.6,1.37-3.6,2.18-5.7,2.32-4,0-5-2.75-5-8v-19.66h12.06v-4.2h-12.08v-8.34h-.9c-2.59,4.48-6.25,8.26-10.64,11v1.52h5.26v20.83c0,7.87,1.3,11.31,7.58,11.31,3.3,0,6.49-1.92,10.51-5.42l-1.09-1.36Zm-5.54-258.7C378.19,17.48,359.91,.1,333.65,.1c-21,0-39.9,10.7-56.07,32l4.57,4.59c12.2-13.71,22.89-20.46,35.06-20.46,21.05,0,36.29,15,36.29,36.3,0,24.72-18.27,43-51.84,48.77v7c3.07-.31,6.37-.31,9.07-.31,33.23,0,51.23,17.07,51.23,47.23s-21.05,51.83-44.82,51.83c-18.61,0-26.5-6.11-35.06-19.23-2.41-3.95-3.62-6.71-7.94-6.71-6.67,0-11.22,3.64-11.22,8.56,0,11.58,20.08,26.54,46.89,26.54,19.55,0,38.42-6.71,51.53-17.41,18-14.6,27.76-34.11,27.76-53.33,0-30.49-17.7-48.77-50-50.92l-.33-.87c25.6-13.47,39.32-32.63,39.32-52.8M216.56,211.65c14.64,0,26.22,.31,34.45,.6v-8.26c-6.39,.31-10.64,.61-12.79,.61-18.92,0-20.71-5.2-20.71-22.54V7.45s.13-4.32-2.92-5.84c-1.41-.47-2.95-.36-4.28,.3-.61,.62-1.34,1.21-2,1.82-29,24.87-52,35.88-62.75,40.11l2.46,5.32c19.38-6.62,30.42-12,42.07-18.45V182.09c0,18.88-3.37,22.24-28,22.24h-8.51v7.92c16.43-.6,37.48-.6,63-.6M76.36,94.58l-.3-.87c25.62-13.47,39.28-32.63,39.28-52.8C115.34,17.48,97.09,.1,70.84,.1,49.84,.1,30.95,10.8,14.78,32.1l4.57,4.59c12.21-13.71,22.85-20.46,35.08-20.46,21,0,36.26,15,36.26,36.3,0,24.72-18.31,43-51.83,48.77v7c3.08-.29,6.42-.29,9.14-.29,33.21,0,51.2,17.07,51.2,47.23s-21,51.83-44.77,51.83c-18.62,0-26.52-6.11-35.08-19.23-2.45-3.95-3.68-6.71-8-6.71-6.68,0-11.25,3.64-11.25,8.56,0,11.58,20.12,26.54,46.93,26.54,19.53,0,38.39-6.71,51.51-17.41,18-14.6,27.76-34.11,27.76-53.33,0-30.49-17.68-48.77-50-50.92"/></svg>