<?xml version="1.0" encoding="utf-8"?>
<!-- Generator: Adobe Illustrator 25.4.1, SVG Export Plug-In . SVG Version: 6.00 Build 0)  -->
<svg version="1.1" id="Layer_1" xmlns="http://www.w3.org/2000/svg" xmlns:xlink="http://www.w3.org/1999/xlink" x="0px" y="0px"
	 viewBox="0 0 110 40" style="enable-background:new 0 0 110 40;" xml:space="preserve">
<style type="text/css">
	.st0{fill:none;stroke:#FFFFFF;stroke-miterlimit:10;}
	.st1{clip-path:url(#SVGID_00000173151031110016752550000015451155361800819637_);fill:#FFFFFF;}
</style>
<path class="st0" d="M137,40.86"/>
<g>
	<defs>
		<rect id="SVGID_1_" x="7.97" y="7.79" width="94.53" height="51.41"/>
	</defs>
	<clipPath id="SVGID_00000094613174369405013680000005980492880714662547_">
		<use xlink:href="#SVGID_1_"  style="overflow:visible;"/>
	</clipPath>
</g>
<g>
	<defs>
		<rect id="SVGID_00000044155493816254547230000016779833629585287814_" x="1.55" y="5.28" width="106.91" height="29.43"/>
	</defs>
	<clipPath id="SVGID_00000088104107000100937800000017083468996367656887_">
		<use xlink:href="#SVGID_00000044155493816254547230000016779833629585287814_"  style="overflow:visible;"/>
	</clipPath>
	<path style="clip-path:url(#SVGID_00000088104107000100937800000017083468996367656887_);fill:#FFFFFF;" d="M81.23,15.97h8.03
		v11.72c0.16,0.01,0.29,0.03,0.42,0.03c1.18,0,2.36,0.05,3.53-0.01c1.37-0.08,2.76-0.13,4.08-0.62c1.57-0.58,2.57-1.66,2.76-3.33
		c0.16-1.47,0.28-2.95,0.26-4.42c-0.01-1.04-0.03-2.11-0.5-3.09c-0.03-0.07,0-0.17,0-0.27h8.33c0.06,0.64,0.15,1.29,0.17,1.93
		c0.05,1.43,0.15,2.86,0.08,4.28c-0.12,2.37-0.46,4.71-1.6,6.85c-0.78,1.45-1.87,2.61-3.27,3.47c-1.58,0.98-3.34,1.49-5.17,1.72
		c-1.27,0.16-2.55,0.28-3.82,0.36c-1.12,0.07-2.25,0.09-3.38,0.09c-3.13,0.01-6.25,0-9.38,0h-0.52V15.97z"/>
	<path style="clip-path:url(#SVGID_00000088104107000100937800000017083468996367656887_);fill:#FFFFFF;" d="M42.13,26.17v8.48
		h-7.87V19.51H60.2c-0.13,1.44-1.54,4.35-4.99,5.61c1.72,3.16,3.43,6.33,5.18,9.54c-0.2,0.01-0.33,0.02-0.46,0.02
		c-2.6,0-5.2,0-7.8,0.01c-0.3,0-0.44-0.09-0.58-0.35c-1.42-2.66-2.86-5.32-4.3-7.97c-0.05-0.09-0.2-0.19-0.3-0.19
		C45.36,26.17,43.78,26.17,42.13,26.17"/>
	<path style="clip-path:url(#SVGID_00000088104107000100937800000017083468996367656887_);fill:#FFFFFF;" d="M9.86,23.71H1.77
		c-0.06-0.63-0.16-1.26-0.17-1.89c-0.03-1.09-0.06-2.17,0-3.26c0.15-2.87,0.75-5.62,2.43-8.04c0.95-1.36,2.16-2.39,3.6-3.2
		c1.66-0.93,3.46-1.4,5.32-1.71c1.97-0.33,3.96-0.33,5.93-0.23c2.47,0.12,4.87,0.63,7.09,1.79c1.11,0.58,2.11,1.32,3,2.21
		c0.18,0.18,0.24,0.31,0.03,0.52c-1.78,1.77-3.55,3.54-5.33,5.32c-0.99-0.94-2.03-1.75-3.37-2.1c-1.51-0.4-3.04-0.52-4.6-0.36
		c-1.01,0.11-1.98,0.28-2.91,0.72c-1.56,0.74-2.52,1.98-2.84,3.64c-0.22,1.12-0.34,2.27-0.36,3.4C9.58,21.57,9.76,22.62,9.86,23.71"
		/>
	<path style="clip-path:url(#SVGID_00000088104107000100937800000017083468996367656887_);fill:#FFFFFF;" d="M34.27,6.17h0.57
		c4.29,0,8.58-0.01,12.87,0c1.1,0,2.2,0,3.29,0.1c1.97,0.17,3.9,0.52,5.68,1.45c2.02,1.06,3.16,2.76,3.66,4.93
		c0.32,1.39,0.32,2.81,0.26,4.26H52.6c-0.05-0.52-0.09-1.02-0.14-1.52c-0.16-1.66-1.01-2.15-2.33-2.22
		c-2.6-0.14-5.21-0.09-7.82-0.12c-0.04,0-0.09,0.02-0.18,0.03v3.83h-7.86V6.17z"/>
	<path style="clip-path:url(#SVGID_00000088104107000100937800000017083468996367656887_);fill:#FFFFFF;" d="M30.4,26.26
		c-0.35,1.79-0.95,3.41-2.17,4.79c-1.36,1.54-3.11,2.38-5.04,2.89c-1.46,0.39-2.96,0.63-4.49,0.65c-1.28,0.01-2.56,0.12-3.84,0.07
		c-2.21-0.09-4.41-0.38-6.49-1.18c-1.3-0.5-2.5-1.2-3.48-2.18c-1.28-1.28-2.12-2.83-2.58-4.59c-0.03-0.13-0.06-0.25-0.1-0.43
		c0.17-0.01,0.31-0.02,0.45-0.02c2.71,0,5.41-0.01,8.11,0.01c0.24,0,0.53,0.11,0.72,0.26c1,0.84,2.19,1.16,3.45,1.26
		c1.05,0.08,2.11,0.13,3.15,0.08c1.21-0.05,2.43-0.17,3.49-0.88c0.07-0.05,0.17-0.08,0.22-0.15c0.38-0.56,0.91-0.61,1.53-0.6
		C25.68,26.28,28.02,26.26,30.4,26.26"/>
	<path style="clip-path:url(#SVGID_00000088104107000100937800000017083468996367656887_);fill:#FFFFFF;" d="M81.22,13.39V6.17h0.46
		c3.64,0,7.28-0.04,10.92,0.02c1.61,0.02,3.22,0.22,4.82,0.35c1.42,0.12,2.8,0.41,4.15,0.89c2.2,0.79,3.99,2.08,5.1,4.19
		c0.3,0.57,0.56,1.16,0.86,1.78H81.22z"/>
	
		<rect x="69.62" y="6.21" style="clip-path:url(#SVGID_00000088104107000100937800000017083468996367656887_);fill:#FFFFFF;" width="8.01" height="18.14"/>
	
		<rect x="15.77" y="17.24" style="clip-path:url(#SVGID_00000088104107000100937800000017083468996367656887_);fill:#FFFFFF;" width="14.89" height="6.48"/>
	
		<rect x="69.63" y="26.92" style="clip-path:url(#SVGID_00000088104107000100937800000017083468996367656887_);fill:#FFFFFF;" width="8.01" height="7.73"/>
	<path style="clip-path:url(#SVGID_00000088104107000100937800000017083468996367656887_);fill:#FFFFFF;" d="M64.42,34.68
		c-2.22,0.03-3.9-1.75-3.89-3.87c0.01-2.2,1.72-3.9,3.9-3.9c2.2,0,3.89,1.69,3.89,3.91C68.31,32.97,66.63,34.69,64.42,34.68"/>
</g>
</svg>
