<svg width="38" height="18" viewBox="0 0 38 18" fill="none" xmlns="http://www.w3.org/2000/svg">
<path d="M37.2517 0H0.619794C0.582729 0 0.525926 0.0345308 0.561096 0.101313C0.763754 0.486797 1.66101 1.61042 4.12517 1.61042C4.60145 1.61042 7.02549 1.78952 7.9811 4.18004C8.56302 5.63577 9.27761 7.3109 9.70499 9.21991C10.7725 13.9948 10.5248 17.3897 10.4753 17.9259C10.4716 17.9728 10.5087 18 10.5427 18H15.8475C15.8475 18 15.981 9.04161 14.175 1.69077H16.6779C16.7995 2.35059 17.6401 7.30153 17.6401 18H23.0179C23.4403 7.65872 24.0858 2.37732 24.1738 1.69077H26.6727C24.9475 8.50612 24.8112 18 24.8112 18H30.1179C30.1475 18 30.1895 17.9741 30.1845 17.9284C30.1457 17.3773 29.9289 13.6835 30.9536 9.21991C31.4659 6.99175 32.1234 5.18332 32.8801 3.72466C33.6258 2.2873 34.602 1.80213 35.5949 1.51814C36.5878 1.23415 37.1534 0.406126 37.3142 0.0938573C37.334 0.0593265 37.308 0 37.2517 0Z" fill="white"/>
</svg>
