<?xml version="1.0" encoding="utf-8"?>
<!-- Generator: Adobe Illustrator 25.2.0, SVG Export Plug-In . SVG Version: 6.00 Build 0)  -->
<svg version="1.1" id="Layer_1" xmlns="http://www.w3.org/2000/svg" xmlns:xlink="http://www.w3.org/1999/xlink" x="0px" y="0px"
	 viewBox="0 0 1200 628" style="enable-background:new 0 0 1200 628;" xml:space="preserve">
<style type="text/css">
	.st0{fill:#3B3736;}
	.st1{fill:#FFA12F;}
	.st2{fill:#0F0A09;}
</style>
<g>
	<rect x="148.75" y="112.62" class="st0" width="33.98" height="301.54"/>
	<rect x="499.13" y="112.62" class="st0" width="33.98" height="301.54"/>
	<rect x="719.98" y="112.62" class="st0" width="33.98" height="301.54"/>
	<rect x="800.67" y="112.62" class="st0" width="33.98" height="301.54"/>
	<polygon class="st0" points="707.24,333.46 707.24,380.18 504.94,132.22 533.11,112.62 	"/>
	<polygon class="st0" points="1005.45,119.17 1049.83,115.93 831.02,345 806.34,321.65 	"/>
	<rect x="397.2" y="112.62" class="st1" width="55.21" height="301.54"/>
	
		<rect x="259.17" y="318.6" transform="matrix(-1.836970e-16 1 -1 -1.836970e-16 673.3303 121.0068)" class="st0" width="33.98" height="157.14"/>
	<polygon class="st0" points="1051.25,414.16 933.14,264.93 910.23,287.85 1008.78,414.16 	"/>
	<g>
		<path class="st1" d="M440.76,532.05c-5.55,2.81-12.84,4.22-21.86,4.22c-13.5,0-24.2-4.24-32.11-12.73
			c-7.91-8.49-11.86-19.31-11.86-32.48c0-14.82,5.22-27.16,15.65-37.01c10.43-9.85,23.06-14.78,37.88-14.78
			c12.75,0,23.54,3.97,32.36,11.92s13.23,18.42,13.23,31.42c0,9.52-2.24,16.93-6.71,22.23c-4.47,5.3-9.56,7.95-15.28,7.95
			c-7.62,0-12.46-3.56-14.53-10.68c-4.39,7.37-10.52,11.05-18.38,11.05c-6.13,0-10.95-2.17-14.47-6.52
			c-3.52-4.35-5.28-9.79-5.28-16.33c0-7.45,2.3-13.72,6.89-18.82c4.6-5.09,10.29-7.64,17.08-7.64c6.62,0,11.51,2.65,14.66,7.95
			c0-0.66,0.06-1.8,0.19-3.42c0.12-1.61,0.23-2.92,0.31-3.91h8.2l-1.86,17.14c-0.33,4.39-0.5,7.95-0.5,10.68
			c0,8.37,2.73,12.54,8.2,12.54c3.64,0,6.69-2.01,9.13-6.02c2.44-4.02,3.66-9.21,3.66-15.59c0-11.26-3.5-20.02-10.5-26.27
			c-7-6.25-15.88-9.38-26.64-9.38c-11.92,0-22.21,4.16-30.86,12.48c-8.65,8.32-12.98,18.65-12.98,30.99
			c0,11.76,3.37,20.83,10.12,27.2c6.75,6.38,14.97,9.56,24.65,9.56c8.28,0,15.65-1.78,22.11-5.34L440.76,532.05z M420.76,505.1
			c3.31,0,6.44-1.16,9.38-3.48c2.94-2.32,5.07-5.55,6.4-9.69c0.17-2.98,0.33-5.26,0.5-6.83c-1.33-8.69-5.8-13.04-13.41-13.04
			c-4.31,0-7.87,1.82-10.68,5.46c-2.82,3.64-4.22,8.07-4.22,13.29c0,4.31,1.12,7.76,3.35,10.37
			C414.3,503.79,417.2,505.1,420.76,505.1z"/>
	</g>
	<g>
		<path class="st2" d="M547.68,496.73c0,6.1-2.61,11.02-7.81,14.77c-5.21,3.76-12,5.63-20.39,5.63c-8.46,0-15.18-1.79-20.15-5.37
			c-4.98-3.58-7.46-8.41-7.46-14.51c0-7.51,3.72-12.93,11.16-16.26c-6.66-3.47-9.99-8.47-9.99-14.99c0-6.52,2.49-11.6,7.46-15.25
			c4.97-3.65,11.3-5.47,18.98-5.47c7.99,0,14.47,1.74,19.45,5.21c4.97,3.47,7.46,8.65,7.46,15.52c0,6.38-3.21,11.27-9.63,14.67
			C544.04,483.73,547.68,489.08,547.68,496.73z M509.02,496.84c0,2.2,0.84,4.08,2.53,5.63c1.68,1.56,4.37,2.34,8.05,2.34
			c3.6,0,6.32-0.8,8.17-2.39c1.84-1.59,2.76-3.52,2.76-5.79c0-2.55-0.96-4.64-2.88-6.27c-1.92-1.63-4.6-2.44-8.05-2.44
			c-3.52,0-6.17,0.89-7.93,2.66C509.9,492.34,509.02,494.43,509.02,496.84z M510.32,465.8c0,2.69,0.9,4.78,2.7,6.27
			c1.8,1.49,4.07,2.23,6.81,2.23c2.66,0,4.89-0.74,6.7-2.23c1.8-1.49,2.7-3.58,2.7-6.27c0-5.46-3.25-8.18-9.75-8.18
			c-3.13,0-5.45,0.8-6.93,2.39C511.06,461.6,510.32,463.53,510.32,465.8z"/>
		<path class="st2" d="M610.3,479.09c0,12.68-3.33,22.16-9.99,28.43c-6.66,6.27-15.55,9.41-26.67,9.41c-5.33,0-9.99-0.67-13.98-2.02
			v-14.67c4.07,1.77,8.11,2.66,12.1,2.66c6.11,0,10.85-1.26,14.22-3.77c3.37-2.51,5.56-6.46,6.58-11.85
			c-3.37,3.05-8.46,4.57-15.27,4.57c-6.89,0-12.47-2-16.74-6.01c-4.27-4-6.4-9.33-6.4-16c0-6.94,2.41-12.72,7.23-17.33
			c4.82-4.6,11.34-6.91,19.56-6.91c9.16,0,16.35,2.99,21.56,8.98C607.7,460.58,610.3,468.74,610.3,479.09z M581.63,479.3
			c4.7,0,8.5-1.59,11.4-4.78c-0.94-10.06-4.7-15.09-11.28-15.09c-3.05,0-5.5,0.89-7.34,2.66c-1.84,1.77-2.76,4.25-2.76,7.44
			c0,2.83,0.9,5.17,2.7,7.01C576.15,478.38,578.58,479.3,581.63,479.3z"/>
		<path class="st2" d="M674.57,493.54c0,7.02-2.45,12.88-7.34,17.59c-4.9,4.71-11.57,7.07-20.03,7.07c-9.48,0-16.63-3.06-21.44-9.19
			c-4.82-6.13-7.23-14.37-7.23-24.71c0-11.83,3.58-21.29,10.75-28.38c7.17-7.08,16.23-10.63,27.2-10.63c4.15,0,8.18,0.57,12.1,1.7
			v14.35c-3.05-1.49-6.62-2.23-10.69-2.23c-5.56,0-10.12,1.54-13.69,4.62c-3.57,3.08-5.97,7.21-7.23,12.38
			c4.23-3.26,9.28-4.89,15.16-4.89c6.74,0,12.16,2.02,16.27,6.06S674.57,486.74,674.57,493.54z M647.31,504.38
			c3.05,0,5.44-0.96,7.17-2.87c1.72-1.91,2.58-4.46,2.58-7.65c0-2.91-0.84-5.22-2.53-6.96c-1.68-1.74-4.05-2.6-7.11-2.6
			c-4.23,0-7.95,1.52-11.16,4.57C637.13,499.21,640.81,504.38,647.31,504.38z"/>
	</g>
</g>
</svg>
