<svg id="Layer_1" data-name="Layer 1" xmlns="http://www.w3.org/2000/svg" viewBox="0 0 255.65 123.79"><defs><style>.cls-1{fill:#3dae2b;}.cls-2{fill:#0082ca;}</style></defs><path class="cls-1" d="M140.1,77.07h12.7V56.36h13.39c14.44,0,20-9.14,20-18.49s-5.58-18.49-20-18.49H140.1Zm12.7-47.82h9.9c5.93,0,11.2,1.29,11.2,8.62s-5.27,8.62-11.2,8.62h-9.9Z"/><path class="cls-2" d="M19,104.41h3.18v-7H27c5.21,0,6.21-3.35,6.21-5.6s-1-5.66-6.21-5.66H19Zm3.18-15.62h4.73c1.68,0,3.14.61,3.14,3a2.91,2.91,0,0,1-3.19,3H22.18Z"/><polygon class="cls-2" points="223.51 86.31 236.47 86.31 236.47 89.03 226.66 89.03 226.66 93.75 235.74 93.75 235.74 96.33 226.66 96.33 226.66 101.59 236.65 101.59 236.65 104.32 223.51 104.32 223.51 86.31"/><path class="cls-2" d="M190.06,77.07h12.71V56.36h13.39c14.43,0,20-9.14,20-18.49s-5.59-18.49-20-18.49h-26.1Zm12.71-47.82h9.9c5.92,0,11.2,1.29,11.2,8.62s-5.28,8.62-11.2,8.62h-9.9Z"/><path class="cls-2" d="M31.26,104.41h3.29l1.72-4.82h7.28l1.71,4.82h3.42l-7-18.24h-3.4Zm8.64-15.1H40l2.73,7.84H37.13Z"/><path class="cls-2" d="M50.17,104.41h3.19V96.9h4.7c2.93,0,3.62,1.48,3.62,4.83a5,5,0,0,0,.49,2.68h3.42c-.7-.74-1-2.68-1-4.8,0-2.89-1.6-3.71-2.7-3.87v0a4.42,4.42,0,0,0,3-4.59c0-3.08-2-4.93-6-4.93H50.17Zm3.19-15.62h5.18c1.67,0,3.18.46,3.18,2.77,0,1.91-1.1,2.9-3.12,2.9H53.36Z"/><polygon class="cls-2" points="67.26 86.17 70.45 86.17 70.45 94.46 78.58 86.17 82.51 86.17 75.23 93.44 83.03 104.41 79.03 104.41 73.06 95.69 70.45 98.27 70.45 104.41 67.26 104.41 67.26 86.17"/><polygon class="cls-2" points="82.72 86.17 85.96 86.17 89.26 100.13 89.31 100.13 92.99 86.17 96.26 86.17 99.84 100.13 99.89 100.13 103.29 86.17 106.53 86.17 101.5 104.41 98.25 104.41 94.6 90.45 94.55 90.45 90.82 104.41 87.52 104.41 82.72 86.17"/><path class="cls-2" d="M104.08,104.41h3.3l1.71-4.82h7.28l1.72,4.82h3.42l-7-18.24h-3.4Zm8.64-15.1h.08l2.73,7.84H110Z"/><polygon class="cls-2" points="125.34 97.26 118.49 86.17 122.2 86.17 127.02 94.35 131.78 86.17 135.35 86.17 128.53 97.26 128.53 104.42 125.34 104.42 125.34 97.26"/><path class="cls-2" d="M142.29,104.32h3.14V97.45h4.8c5.14,0,6.12-3.32,6.12-5.55s-1-5.6-6.12-5.6h-7.94Zm3.14-15.45h4.67c1.67,0,3.11.61,3.11,3a2.88,2.88,0,0,1-3.16,3h-4.62Z"/><path class="cls-2" d="M154.38,104.32h3.26l1.68-4.75h7.2l1.69,4.75h3.38l-7-18h-3.35Zm8.53-14.91H163l2.7,7.75h-5.5Z"/><path class="cls-2" d="M172.56,104.32h3.15V96.9h4.65c2.9,0,3.58,1.46,3.58,4.77a5,5,0,0,0,.48,2.65h3.39c-.68-.73-1-2.65-1-4.75,0-2.85-1.58-3.66-2.68-3.81v-.05a4.38,4.38,0,0,0,3-4.55c0-3-2-4.86-6-4.86h-8.61Zm3.15-15.45h5.13c1.64,0,3.13.45,3.13,2.75,0,1.89-1.08,2.87-3.08,2.87h-5.18Z"/><path class="cls-2" d="M188,104.32h3.25l1.69-4.75h7.2l1.69,4.75h3.38l-6.94-18h-3.36Zm8.53-14.91h.08l2.7,7.75h-5.5Z"/><path class="cls-2" d="M206.55,104.32H214c5.55,0,7.94-4,7.94-9s-2.39-9-7.94-9h-7.48Zm3.15-15.45h3.11c4.95,0,6,2.83,6,6.44s-1.06,6.44-6,6.44H209.7Z"/></svg>