<svg id="ebV1UGDZsI01" xmlns="http://www.w3.org/2000/svg" xmlns:xlink="http://www.w3.org/1999/xlink" viewBox="0 0 930 310" shape-rendering="geometricPrecision" text-rendering="geometricPrecision">
<style><![CDATA[
#ebV1UGDZsI015_tr {animation: ebV1UGDZsI015_tr__tr 3000ms linear infinite normal forwards}@keyframes ebV1UGDZsI015_tr__tr { 0% {transform: translate(637.569449px,72.150315px) rotate(0deg)} 30% {transform: translate(637.569449px,72.150315px) rotate(0deg)} 53.333333% {transform: translate(637.569449px,72.150315px) rotate(180deg)} 80% {transform: translate(637.569449px,72.150315px) rotate(180deg)} 99% {transform: translate(637.569449px,72.150315px) rotate(360deg)} 100% {transform: translate(637.569449px,72.150315px) rotate(360deg)}}
]]></style>
<path d="M478.75,280.21v24.52h8.65h25.95.84l.01.84v98.77h14.36h14.35v-99.61h.21.63h34.6v-6.13-18.39h-99.6Z" transform="translate(-105.340555-102.374688)" fill="#00aeef"/><path d="M626.56,304.73h23.92c12.48,0,19.92,6.36,19.92,17s-7.74,17.19-19.71,17.19h-24.13v-34.19Zm-28.71,99.61h28.72v-41.31h.84h18.08l.21.33.04.06l7.44,11.74l18.51,29.18h33.29v-.99l-28.3-41.73v-3.11l.48-.22c14.61-6.79,22.99-20.11,22.99-36.56c0-24.45-19.56-41.52-47.59-41.52h-54.72v124.13h.01Z" transform="translate(-105.340555-102.374688)" fill="#00aeef"/><path d="M723.66,280.21v31.03v93.1h44.87h44.87v-12.27-12.27l-61.01.01v-.01-.42-.42-26.42h.21.63h50.32v-5.56-16.66h-51.16v-.42-.42-24.75h.21.63h60.17v-12.27-12.25h-89.74Z" transform="translate(-105.340555-102.374688)" fill="#00aeef"/><path d="M181.87,305.23c0,0,.06,0,.09.01c1.51.17,2.93.43,4.26.74.15.02.3.06.44.1c1.2.28,2.32.63,3.38.99.26.09.51.17.75.26.93.33,1.79.69,2.6,1.06.3.14.58.27.86.41.73.36,1.41.72,2.04,1.07.25.15.49.28.73.42.62.38,1.18.75,1.72,1.11.12.09.26.19.38.27.59.42,1.1.81,1.53,1.17.02.02.06.04.09.06.48.41.88.75,1.16,1.02L218.28,292c-.16-.16-.36-.35-.61-.57-.01-.02-.05-.05-.06-.06-.65-.61-1.63-1.42-2.86-2.36-.21-.16-.44-.32-.67-.48-.22-.16-.43-.31-.67-.47-.3-.22-.63-.43-.95-.65.15.11.32.21.47.32-.43-.3-.89-.59-1.37-.9.11.07.21.14.31.21-.38-.26-.79-.51-1.21-.75.15.09.31.17.46.27-.32-.2-.65-.39-.99-.59-.47-.27-.95-.54-1.46-.81.14.07.28.15.42.22-.46-.26-.93-.51-1.41-.75.17.09.33.19.51.27-.54-.3-1.11-.58-1.7-.88-.14-.06-.27-.12-.41-.18-.64-.32-1.31-.63-2.01-.93.1.04.21.09.31.12-.42-.19-.86-.37-1.32-.56.27.12.54.23.81.35-2.72-1.16-5.84-2.25-9.33-3.14-.15-.04-.32-.07-.47-.11-3.52-.86-7.41-1.53-11.7-1.85-1.93-.15-3.89-.25-5.97-.25-37.66,0-63.95,26.64-63.95,64.79s26.29,65,63.95,65c2.15,0,4.17-.11,6.15-.26c1.43-.11,2.8-.27,4.15-.46.39-.05.78-.12,1.16-.17.37-.06.7-.12,1.06-.18.58-.1,1.18-.19,1.75-.3.38-.09.78-.16,1.16-.23.99-.21,1.95-.44,2.89-.68.22-.06.46-.11.67-.17c1.21-.32,2.37-.67,3.48-1.04.17-.06.35-.11.52-.17-.1.04-.21.06-.32.1.89-.3,1.74-.61,2.55-.91-.11.04-.22.09-.33.12.35-.12.69-.27,1.04-.41-.17.07-.36.14-.53.21c1.04-.41,2.01-.81,2.95-1.25h.01c.93-.42,1.8-.85,2.64-1.28h.02c.83-.44,1.62-.88,2.36-1.31s1.44-.86,2.09-1.28c-.21.14-.42.27-.65.42.38-.23.74-.47,1.1-.7.37-.25.72-.48,1.05-.72-.12.07-.22.16-.35.25.41-.28.79-.56,1.16-.83-.07.05-.16.11-.22.16.27-.2.52-.39.77-.58.23-.17.46-.35.67-.52.19-.14.37-.28.53-.42-.02.02-.06.05-.1.09.3-.25.56-.47.8-.68.1-.07.2-.17.28-.25.63-.54,1.09-.99,1.38-1.28l-13.28-17.77-3.1-4.15c-.28.27-.67.62-1.15,1.01-.04.02-.07.06-.11.09-.43.35-.91.73-1.49,1.15-.14.1-.28.2-.43.3-.51.35-1.06.72-1.67,1.07-.25.16-.51.3-.77.46-.63.35-1.28.7-2,1.05-.3.15-.59.28-.9.42-.8.37-1.65.72-2.57,1.05-.26.1-.52.18-.79.28-1.05.36-2.16.68-3.36.98-.15.04-.31.06-.47.1-1.33.31-2.74.57-4.25.74-.04,0-.07.01-.11.01-1.58.19-3.26.3-5.02.3-20.38,0-34.61-15.35-34.61-37.34s14.23-37.34,34.61-37.34c1.78,0,3.46.11,5.05.3" transform="translate(-105.340555-102.374688)" fill="#00aeef"/><path d="M235.11,280.21v124.13h44.86h44.87v-24.54l-61.01.01-.01-.85v-26.42h.01.21.63h50.32v-22.22h-51.16l-.01-.84v-24.75h.01.21.63h60.17v-24.52h-89.73Z" transform="translate(-105.340555-102.374688)" fill="#00aeef"/><path d="M361.12,404.33h14.26v-74.89l1.32,1.6.17.21l60.14,73.08h22.24v-124.13h-28.5v73.61l-1.13-1.33-.37-.44-60.14-71.84h-22.24v124.13h14.25Z" transform="translate(-105.340555-102.374687)" fill="#00aeef"/><path d="M168.33,159.61c-13.96-4.05-20.54-6.73-20.54-13.81c0-4.59,2.51-10.07,14.48-10.07c3.93,0,7.6.51,10.99,1.27.12.04.22.06.35.09.86.21,1.7.42,2.53.65.02.01.04.01.06.02.38.1.72.23,1.07.35.74.22,1.48.46,2.17.69.06.02.12.05.19.07.68.23,1.32.48,1.95.74.19.07.36.15.54.22.84.35,1.6.7,2.37,1.05.26.12.57.25.83.37-.25-.12-.56-.23-.83-.37c1.68.79,3.16,1.57,4.43,2.3-1.05-.6-2.2-1.23-3.52-1.89c1.33.65,2.48,1.3,3.53,1.9.07.04.15.07.21.11.2.12.43.25.62.36-.19-.11-.41-.23-.6-.35.4.22.77.46,1.12.67-.14-.07-.22-.14-.35-.22.58.36,1.12.69,1.58,1-.36-.23-.8-.51-1.23-.78c1.21.74,2.2,1.41,2.81,1.86l15.47-23.4c-.17-.14-.37-.31-.62-.51-.01,0-.01-.01-.02-.01-.19-.15-.43-.33-.67-.51-.09-.06-.15-.12-.25-.18-.28-.21-.6-.43-.95-.67-.07-.05-.15-.1-.23-.16-.33-.22-.72-.47-1.11-.72-.12-.07-.22-.14-.35-.21-.36-.22-.77-.44-1.16-.68-.2-.11-.38-.22-.6-.35-.3-.16-.64-.33-.96-.51-.36-.18-.7-.37-1.09-.56-.1-.05-.21-.1-.31-.15-1.39-.67-2.93-1.36-4.68-2.02-1.09-.42-2.2-.8-3.33-1.17-.44-.15-.93-.3-1.39-.43-.68-.21-1.37-.42-2.06-.61-.65-.18-1.33-.35-2.02-.52-.54-.14-1.1-.27-1.67-.4-.79-.19-1.6-.35-2.44-.51-.51-.1-1.01-.2-1.53-.3-.89-.16-1.81-.3-2.75-.43-.51-.07-1.02-.16-1.56-.22-.96-.12-1.95-.23-2.95-.33-.56-.05-1.1-.11-1.65-.16-1.05-.09-2.14-.15-3.23-.21-.54-.04-1.09-.07-1.63-.1-1.53-.06-3.11-.1-4.74-.1-.11,0-.21-.01-.32-.01-30.39,0-47.8,13.91-47.8,38.16c0,18.44,11.85,29.45,40.9,37.98c17.44,5.18,22.22,8.62,22.22,15.91s-5.36,11.33-14.69,11.33c-.78,0-1.56-.05-2.32-.09-.2-.01-.38-.01-.58-.02-.25-.02-.49-.06-.73-.09-12.33-1.12-24.33-7.53-29.39-10.55-.79-.47-1.39-.85-1.79-1.1l-15.65,21.98c.19.16.43.36.72.58.69.54,1.72,1.3,2.97,2.15.46.31.95.63,1.47.96.26.16.52.32.79.49-.01-.01-.02-.02-.02-.02.59.36,1.23.74,1.91,1.12.21.12.41.23.63.36.93.52,1.91,1.04,2.97,1.57-.01-.01-.02-.01-.05-.02.2.1.41.19.6.28.91.44,1.88.89,2.88,1.32-.02-.01-.04-.02-.06-.02.33.15.68.3,1.02.43c1.02.43,2.11.86,3.23,1.28.25.09.48.19.74.27c1.42.51,2.9,1,4.46,1.47.2.06.41.11.6.16-.04,0-.07-.01-.11-.02c1.37.4,2.79.78,4.27,1.12.43.11.88.21,1.33.31-.01,0-.02-.01-.02-.01c1.36.31,2.75.58,4.2.83c5.12.9,10.75,1.47,16.97,1.47c15.29,0,27.76-4.17,36.05-12.07c7.54-7.17,11.53-17.13,11.53-28.82c0-18.79-12.91-30.39-43.2-38.82" transform="translate(-105.340555-102.374687)"/><path d="M249.84,112.47h-17.95v124.12h28.71v-31.03-93.09h-10.76Z" transform="translate(-105.340555-102.374687)"/><path d="M389.98,112.47h-17.82l.01,73.6h-.01l-1.22-1.46-.26-.32-60.15-71.82h-22.25l.01,124.12h28.51v-74.9l.82.99.68.83l54.8,66.61l5.33,6.47h22.24v-124.12h-10.69Z" transform="translate(-105.340555-102.374687)"/><path d="M543.88,180.81v-17.4h-61.01v22.23h28.73v2.31c-.23,7.48-2.88,13.47-7.48,17.56-.2.17-.41.32-.6.48-.39.33-.79.67-1.22.98-.02.02-.06.04-.09.06-4.46,3.14-10.36,4.83-17.45,4.83-19.45,0-33.56-15.7-33.56-37.34s14.11-37.33,33.56-37.33c1.95,0,3.8.11,5.55.32h.02c.28.04.54.09.83.12c9.23,1.25,15.64,4.96,19.03,7.47.96.7,1.68,1.32,2.15,1.74l14.28-18.39l2.37-3.04-2.16,2.78l2.6-3.36.14-.17c-.17-.16-.37-.36-.62-.58-.22-.21-.48-.44-.78-.7-.07-.06-.16-.14-.25-.21-.22-.19-.44-.38-.7-.59-.2-.16-.43-.33-.65-.51-.21-.16-.41-.32-.64-.51.05.05.1.09.15.12-.3-.22-.62-.46-.95-.69-.12-.09-.25-.19-.38-.27-.39-.27-.81-.56-1.26-.84-.09-.06-.17-.11-.25-.17-.51-.32-1.04-.64-1.6-.98.12.06.25.14.36.21-.28-.17-.59-.36-.9-.53.16.1.32.19.48.28-1.47-.86-3.15-1.75-5.01-2.6-.25-.12-.52-.23-.78-.35-.72-.32-1.46-.63-2.23-.94-.16-.06-.32-.12-.48-.19-.07-.04-.15-.06-.22-.1-.96-.36-1.95-.72-3-1.06-.11-.04-.22-.07-.33-.1-1.12-.37-2.28-.72-3.51-1.04-.16-.04-.32-.07-.47-.11-.04-.01-.07-.01-.1-.02-1.05-.27-2.12-.52-3.25-.75-.35-.06-.7-.14-1.05-.21-1.04-.2-2.1-.37-3.18-.53-.38-.06-.75-.12-1.15-.17-1.41-.19-2.86-.36-4.37-.48-2.32-.19-4.71-.32-7.27-.32-37.53,0-63.74,26.65-63.74,64.79s26.03,64.8,63.32,64.8s59.12-22.97,59.12-58.51" transform="translate(-105.340555-102.374687)"/><path d="M591.48,171.18v-34.19h23.91c12.48,0,19.93,6.36,19.93,16.98s-7.74,17.21-19.72,17.21h-24.12Zm26.01,24.11c28.91,0,47.59-16.22,47.59-41.31s-19.58-41.51-47.59-41.51h-54.73v124.13h28.72v-41.31h26.01Z" transform="translate(-105.340555-102.374687)"/><path d="M904.74,227.25c7.54-7.17,11.53-17.14,11.53-28.82c0-18.79-12.92-30.39-43.2-38.82-13.97-4.05-20.55-6.74-20.55-13.81c0-4.6,2.52-10.08,14.49-10.08c2.16,0,4.23.16,6.23.43c1.53.2,2.99.47,4.42.79.09.01.17.02.26.05.14.02.25.05.37.09.85.2,1.69.41,2.51.64.04.01.09.02.14.04.68.2,1.31.42,1.96.63.39.14.81.26,1.21.39.09.02.17.06.26.09.65.23,1.28.48,1.9.73.2.07.37.15.56.22.16.07.33.14.49.2.01.01.02.01.04.02.94.39,1.84.8,2.68,1.21-.23-.12-.52-.22-.77-.35c1.63.77,3.06,1.52,4.3,2.22-1.02-.59-2.15-1.21-3.44-1.84c1.3.63,2.42,1.25,3.46,1.85.1.06.21.11.32.17.19.11.42.23.59.35-.17-.11-.41-.22-.59-.35.37.22.73.43,1.05.63-.1-.06-.19-.12-.3-.18.59.36,1.14.7,1.6,1-.38-.25-.84-.53-1.31-.81c1.25.77,2.25,1.44,2.89,1.9l15.47-23.39c-.17-.15-.38-.31-.63-.51c0,0-.01-.01-.01-.02-.21-.16-.47-.36-.74-.56-.06-.05-.11-.09-.17-.14-.28-.21-.62-.43-.96-.67-.07-.05-.14-.1-.22-.15-.38-.27-.83-.54-1.3-.84-.06-.02-.1-.06-.16-.09-.44-.27-.94-.56-1.44-.84-.11-.06-.2-.12-.31-.19-.46-.25-.96-.51-1.47-.77-.2-.1-.37-.2-.58-.3-.36-.17-.77-.36-1.15-.53-1.17-.56-2.43-1.11-3.85-1.65-1.07-.41-2.18-.8-3.31-1.16-.47-.16-.99-.31-1.48-.46-.65-.2-1.32-.4-1.99-.58-.67-.19-1.36-.36-2.05-.53-.56-.14-1.1-.27-1.65-.4-.79-.17-1.62-.35-2.46-.51-.51-.1-1.01-.2-1.52-.28-.89-.16-1.81-.31-2.75-.44-.52-.07-1.04-.15-1.56-.22-.96-.12-1.96-.22-2.96-.32-.54-.06-1.09-.12-1.64-.16-1.05-.1-2.15-.16-3.25-.22-.54-.02-1.07-.07-1.62-.09-1.54-.07-3.12-.1-4.75-.11h-.31c-30.39,0-47.8,13.91-47.8,38.16c0,18.44,11.85,29.44,40.9,37.98c17.44,5.18,22.21,8.6,22.21,15.91s-5.34,11.32-14.69,11.32c-.77,0-1.53-.04-2.31-.09-.2-.01-.38,0-.58-.02-.25-.01-.48-.05-.73-.07-12.34-1.12-24.35-7.55-29.4-10.57-.79-.47-1.38-.85-1.78-1.1l-15.65,22c3.2,2.68,20.75,16.06,51.49,16.06c15.29,0,27.76-4.17,36.07-12.06" transform="translate(-105.340555-102.374687)"/><path d="M928.44,112.47v24.51h34.6.84v.42.43v98.76h28.72v-24.9-74.71h.84h34.6v-12.26-12.25h-99.6Z" transform="translate(-105.340555-102.374687)"/><g id="ebV1UGDZsI015_tr" transform="translate(637.569449,72.150315) rotate(0)"><g transform="translate(-742.910003,-174.525001)"><path d="M706.45,174.54c-.01-18.43,13.66-33.67,31.42-36.13v-28.72c-33.57,2.57-60.01,30.64-60,64.86.02,34.21,26.45,62.23,60,64.8v-28.72c-17.75-2.46-31.41-17.66-31.42-36.09Z"/><path d="M747.95,109.69v28.73c17.75,2.46,31.41,17.66,31.42,36.08.01,18.44-13.66,33.67-31.42,36.13v28.73c33.57-2.58,60.01-30.65,60-64.87-.02-34.2-26.45-62.23-60-64.8Z"/></g></g></svg>
