<svg xmlns="http://www.w3.org/2000/svg" viewBox="0 0 96 96"><defs><style>.a{fill:#c9e7e4;}</style></defs><path class="a" d="M16.51,54.21c.6,0,1-.43,1.07-1.22L19.7,34.84c.1-.79-.19-1.21-.78-1.21s-1,.42-1.08,1.21L15.72,53c-.09.79.2,1.22.79,1.22"/><path class="a" d="M26.52,41.4c2.51,0,3.51,2.52,3.31,4.87H22.07c.35-2.35,1.94-4.87,4.45-4.87m4.53,10c.09-.73-.25-.92-.77-.92-.88,0-1.91,2.17-4.86,2.17-2.38,0-3.74-2.3-3.54-4.76H30.4c1.11,0,1.35-.66,1.4-1.17.42-3.54-1.19-6.87-5.07-6.87S20.38,43.47,20,47s1,7.19,5.39,7.19c3.21,0,5.59-2,5.69-2.83"/><path class="a" d="M51,52.62c-2.9,0-3.55-3-3.26-5.61s1.75-5.61,4.57-5.61,3.52,3.05,3.23,5.61S53.89,52.62,51,52.62M34.39,19.34c.3-2.57,1.74-5.61,4.56-5.61s3.53,3,3.23,5.61-1.64,5.6-4.54,5.6-3.55-3-3.25-5.6M54.85,52.12h.08l-.1.87c-.1.79.19,1.21.79,1.21s1-.42,1.07-1.21l1.4-12c.09-.79-.2-1.21-.79-1.21s-1,.42-1.08,1.21l0,.18,0-.05L38,26.5a4.87,4.87,0,0,0,3.48-2.06h.08l-.1.87c-.1.8.19,1.22.79,1.22s1-.42,1.07-1.22l1.4-11.95c.09-.8-.2-1.22-.79-1.22s-1,.42-1.08,1.22l-.1.87h-.08a4,4,0,0,0-3.61-2.09c-4,0-6.3,3.65-6.71,7.2-.31,2.62.29,4.91,1.87,6.17l0,0L52,39.84c-3.7.28-5.86,3.77-6.25,7.17-.47,4,1.12,7.19,5.08,7.19a4.88,4.88,0,0,0,4.05-2.08"/><path class="a" d="M61.54,39.82c-.59,0-1,.42-1.07,1.21l-1.4,12c-.09.79.2,1.21.79,1.21s1-.42,1.07-1.21l.8-6.85a4.56,4.56,0,0,1,3.56-4.26c.93-.21,1.32-.5,1.39-1s-.25-1-1.13-1a4.29,4.29,0,0,0-3.32,2.54h0L62.33,41c.09-.79-.19-1.21-.79-1.21"/><path class="a" d="M21.94,71.11c-.3,2.57-1.66,5.61-4.56,5.61s-3.55-3-3.25-5.61,1.66-5.61,4.56-5.61,3.55,3,3.25,5.61m1.75-7.19c-.59,0-1,.42-1.07,1.21l-.1.88h-.08a3.73,3.73,0,0,0-3.56-2.09c-4,0-6.31,3.22-6.77,7.19-.41,3.54,1.05,7.19,5,7.19a5.18,5.18,0,0,0,4.1-2.09h.08l-.75,6.43c-.09.8.2,1.22.79,1.22s1-.42,1.07-1.22l2.05-17.51c.09-.79-.19-1.21-.79-1.21"/><path class="a" d="M36.53,63.92c-.6,0-1,.42-1.08,1.21L34.53,73c-.28,2.41-1.7,3.68-3.79,3.68S27.52,75.45,27.8,73l.93-7.91c.09-.79-.2-1.21-.79-1.21s-1,.42-1.08,1.21l-1,8.39c-.35,3,1.72,4.78,4.67,4.78s5.43-1.74,5.79-4.78l1-8.39c.09-.79-.2-1.21-.79-1.21"/><path class="a" d="M48.11,71.11c-.3,2.57-1.64,5.61-4.54,5.61s-3.55-3-3.25-5.61,1.74-5.61,4.56-5.61,3.53,3,3.23,5.61M34.9,47c.3-2.56,1.66-5.61,4.56-5.61S43,44.45,42.71,47s-1.66,5.61-4.56,5.61-3.55-3-3.25-5.61m15,16.91c-.59,0-1,.42-1.07,1.21l0,.15L34.12,53.77a2,2,0,0,0,0-.24l.17-1.41h.07A3.75,3.75,0,0,0,38,54.21c4,0,6.3-3.23,6.76-7.2.42-3.54-1-7.19-5-7.19a5.18,5.18,0,0,0-4.1,2.09h-.08l.83-7.07c.09-.79-.2-1.21-.79-1.21s-1,.42-1.08,1.21L32.3,53.53c-.07.57.06.95.37,1.12l.08.1L44.48,64c-3.66.31-5.78,3.78-6.18,7.16-.46,4,1.13,7.19,5.09,7.19a4.88,4.88,0,0,0,4-2.09h.07l-.1.88c-.09.79.2,1.21.79,1.21s1-.42,1.07-1.21l1.4-12c.09-.79-.19-1.21-.79-1.21"/><path class="a" d="M58.14,63.92a4.28,4.28,0,0,0-3.33,2.54h-.05l.16-1.33c.09-.79-.2-1.21-.79-1.21s-1,.42-1.08,1.21l-1.39,12c-.1.79.19,1.21.79,1.21s1-.42,1.07-1.21l.8-6.85A4.55,4.55,0,0,1,57.87,66c.93-.21,1.33-.5,1.39-1s-.24-1-1.12-1"/><path class="a" d="M64.55,64.87a.67.67,0,0,0-.71-.8H62.62L63,61c.1-.82-.19-1.24-.78-1.24s-1,.42-1.08,1.24l-.36,3.09-.19,1.59L59.24,77.09c-.09.79.19,1.21.79,1.21s1-.42,1.07-1.21l1.34-11.43h1.21a.87.87,0,0,0,.9-.79"/><path class="a" d="M73.82,70.37H66.05C66.41,68,68,65.5,70.5,65.5S74,68,73.82,70.37m-3.1-6.45c-3.89,0-6.36,3.65-6.77,7.19s1,7.19,5.39,7.19c3.21,0,5.59-2,5.69-2.83s-.25-.92-.77-.92c-.88,0-1.91,2.17-4.86,2.17-2.38,0-3.74-2.3-3.53-4.76h8.51c1.12,0,1.35-.66,1.41-1.17.41-3.54-1.19-6.87-5.07-6.87"/><path class="a" d="M82.83,63.92a4.28,4.28,0,0,0-3.33,2.54h0l.16-1.33c.09-.79-.2-1.21-.79-1.21s-1,.42-1.08,1.21l-1.39,12c-.1.79.19,1.21.79,1.21s1-.42,1.07-1.21l.8-6.85A4.55,4.55,0,0,1,82.56,66c.93-.21,1.33-.5,1.39-1s-.24-1-1.12-1"/><path class="a" d="M21.55,19.34c.3-2.57,1.66-5.61,4.56-5.61s3.55,3,3.25,5.61-1.66,5.6-4.56,5.6-3.55-3-3.25-5.6m-2.4,12.74c.6,0,1-.42,1.08-1.21L21,24.44h.08a4,4,0,0,0,3.61,2.09c4,0,6.3-3.65,6.71-7.19.47-4-1.12-7.2-5.08-7.2a4.89,4.89,0,0,0-4.05,2.09h-.08l.1-.87c.1-.8-.19-1.22-.79-1.22s-1,.42-1.07,1.22L18.36,30.87c-.09.79.2,1.21.79,1.21"/><path class="a" d="M48.57,26l-2.21,4.52a2.3,2.3,0,0,0-.25.77.7.7,0,0,0,.76.79c.52,0,.84-.31,1.12-.95l8-17.56a1.84,1.84,0,0,0,.17-.56.75.75,0,0,0-.76-.87c-.51,0-.84.32-1.08.87L49.8,23.22h-.06L47.6,13c-.12-.55-.37-.87-.88-.87a1,1,0,0,0-1,.87,1.59,1.59,0,0,0,0,.56Z"/><path class="a" d="M57.73,19.34c.3-2.57,1.74-5.61,4.56-5.61s3.53,3,3.23,5.61-1.64,5.6-4.54,5.6-3.55-3-3.25-5.6m3.07,7.19a4.88,4.88,0,0,0,4-2.09h.07l-.1.87c-.09.8.2,1.22.79,1.22s1-.42,1.08-1.22l1.39-11.95c.09-.8-.19-1.22-.79-1.22s-1,.42-1.07,1.22l-.1.87H66a4,4,0,0,0-3.61-2.09c-4,0-6.3,3.65-6.72,7.2-.46,4,1.13,7.19,5.09,7.19"/></svg>