<?xml version="1.0" encoding="UTF-8"?> <svg xmlns="http://www.w3.org/2000/svg" width="208" height="50" viewBox="0 0 208 50" fill="none"><path d="M28.2523 50L32.4021 7.21649H37.2782L38.1082 50H39.1457L38.6348 5.83446C38.63 5.42417 38.3751 5.05841 37.9919 4.91192L27.2686 0.813574C26.2617 0.428745 25.1897 1.19991 25.2344 2.27692L27.2148 50H28.2523Z" fill="#98C93C"></path><path d="M52.114 50H50.5578L52.6327 11.8557L34.4771 20.1031L39.1457 50H38.1082L32.5352 18.7867C32.456 18.3431 32.6759 17.8998 33.0781 17.6919L56.0284 5.83302C56.9988 5.33158 58.1347 6.12622 57.9869 7.20315L52.114 50Z" fill="#524FA0"></path><path d="M15.2839 50H14.2465L15.2839 37.4227L3.8718 39.8969L4.90927 50H3.35307L0.0244848 34.8795C-0.125376 34.1988 0.433516 33.5694 1.13191 33.6325L15.794 34.957C16.3697 35.009 16.7915 35.5185 16.732 36.0898L15.2839 50Z" fill="#13A9E3"></path><path d="M28.2523 50H26.1773L25.6586 25.7732L12.1715 35.0515L14.7652 50H13.209L6.28736 35.7854C5.80591 34.7967 6.189 33.6065 7.15851 33.0789L25.3 23.2069C26.1796 22.7283 27.2585 23.337 27.2956 24.3328L28.2523 50Z" fill="#F37124"></path><path d="M81.8957 25.6757V24.4668H75.3638V13.018H74V25.6757H81.8957Z" fill="#1E1E1E"></path><path d="M93.2951 25.6757V24.4668H86.7273V19.898H92.3261V18.6891H86.7273V14.2269H93.2951V13.018H85.3635V25.6757H93.2951Z" fill="#1E1E1E"></path><path d="M98.5639 25.6757V13.018H97.2001V25.6757H98.5639Z" fill="#1E1E1E"></path><path d="M111.04 22.1913C111.04 21.1424 110.663 20.2713 109.963 19.6846C109.425 19.2224 108.832 18.9735 107.63 18.7958L106.23 18.5824C105.566 18.4758 104.902 18.2269 104.508 17.8891C104.113 17.5513 103.933 17.0536 103.933 16.4313C103.933 15.0269 104.92 14.0847 106.625 14.0847C107.971 14.0847 108.814 14.458 109.604 15.1691L110.483 14.298C109.389 13.3203 108.312 12.9114 106.679 12.9114C104.149 12.9114 102.588 14.3336 102.588 16.4847C102.588 17.498 102.911 18.2802 103.557 18.8491C104.113 19.3291 104.902 19.6491 105.907 19.8091L107.397 20.0402C108.33 20.1824 108.653 20.2891 109.066 20.6446C109.478 21.0002 109.676 21.5691 109.676 22.2268C109.676 23.7024 108.527 24.5735 106.661 24.5735C105.225 24.5735 104.239 24.2357 103.18 23.1868L102.247 24.1113C103.449 25.3024 104.705 25.7823 106.625 25.7823C109.281 25.7823 111.04 24.4135 111.04 22.1913Z" fill="#1E1E1E"></path><path d="M123.707 21.4979V13.018H122.343V21.3913C122.343 23.3113 121.105 24.5735 119.238 24.5735C117.372 24.5735 116.152 23.3113 116.152 21.3913V13.018H114.788V21.4979C114.788 24.0224 116.654 25.7823 119.238 25.7823C121.823 25.7823 123.707 24.0224 123.707 21.4979Z" fill="#1E1E1E"></path><path d="M137.23 25.6757L134.198 19.9335C135.849 19.5957 136.979 18.3869 136.979 16.538C136.979 14.3514 135.418 13.018 133.193 13.018H128.294V25.6757H129.658V20.058H132.726L135.633 25.6757H137.23ZM135.615 16.5558C135.615 18.1024 134.557 18.8669 133.067 18.8669H129.658V14.2269H133.067C134.557 14.2269 135.615 15.0091 135.615 16.5558Z" fill="#1E1E1E"></path><path d="M149.078 25.6757V24.4668H142.511V19.898H148.109V18.6891H142.511V14.2269H149.078V13.018H141.147V25.6757H149.078Z" fill="#1E1E1E"></path><path d="M169.753 16.7336C169.753 14.458 168.138 13.018 165.805 13.018H161.049V25.6757H162.413V20.4668H165.805C168.138 20.4668 169.753 19.0091 169.753 16.7336ZM168.389 16.7336C168.389 18.4046 167.276 19.258 165.679 19.258H162.413V14.2269H165.679C167.276 14.2269 168.389 15.0625 168.389 16.7336Z" fill="#1E1E1E"></path><path d="M181.436 25.6757L176.753 13.018H175.604L170.902 25.6757H172.356L173.379 22.8135H178.96L179.983 25.6757H181.436ZM178.565 21.6402H173.792L176.196 14.9558L178.565 21.6402Z" fill="#1E1E1E"></path><path d="M193.519 25.6757L190.486 19.9335C192.137 19.5957 193.268 18.3869 193.268 16.538C193.268 14.3514 191.706 13.018 189.481 13.018H184.582V25.6757H185.946V20.058H189.015L191.922 25.6757H193.519ZM191.904 16.5558C191.904 18.1024 190.845 18.8669 189.356 18.8669H185.946V14.2269H189.356C190.845 14.2269 191.904 15.0091 191.904 16.5558Z" fill="#1E1E1E"></path><path d="M207 25.6757L202.406 17.9069L206.426 13.018H204.757L198.799 20.2891V13.018H197.435V25.6757H198.799V22.1379L201.491 18.938L205.385 25.6757H207Z" fill="#1E1E1E"></path><path d="M81.8957 25.6757V24.4668H75.3638V13.018H74V25.6757H81.8957Z" stroke="#1E1E1E" stroke-width="0.70843"></path><path d="M93.2951 25.6757V24.4668H86.7273V19.898H92.3261V18.6891H86.7273V14.2269H93.2951V13.018H85.3635V25.6757H93.2951Z" stroke="#1E1E1E" stroke-width="0.70843"></path><path d="M98.5639 25.6757V13.018H97.2001V25.6757H98.5639Z" stroke="#1E1E1E" stroke-width="0.70843"></path><path d="M111.04 22.1913C111.04 21.1424 110.663 20.2713 109.963 19.6846C109.425 19.2224 108.832 18.9735 107.63 18.7958L106.23 18.5824C105.566 18.4758 104.902 18.2269 104.508 17.8891C104.113 17.5513 103.933 17.0536 103.933 16.4313C103.933 15.0269 104.92 14.0847 106.625 14.0847C107.971 14.0847 108.814 14.458 109.604 15.1691L110.483 14.298C109.389 13.3203 108.312 12.9114 106.679 12.9114C104.149 12.9114 102.588 14.3336 102.588 16.4847C102.588 17.498 102.911 18.2802 103.557 18.8491C104.113 19.3291 104.902 19.6491 105.907 19.8091L107.397 20.0402C108.33 20.1824 108.653 20.2891 109.066 20.6446C109.478 21.0002 109.676 21.5691 109.676 22.2268C109.676 23.7024 108.527 24.5735 106.661 24.5735C105.225 24.5735 104.239 24.2357 103.18 23.1868L102.247 24.1113C103.449 25.3024 104.705 25.7823 106.625 25.7823C109.281 25.7823 111.04 24.4135 111.04 22.1913Z" stroke="#1E1E1E" stroke-width="0.70843"></path><path d="M123.707 21.4979V13.018H122.343V21.3913C122.343 23.3113 121.105 24.5735 119.238 24.5735C117.372 24.5735 116.152 23.3113 116.152 21.3913V13.018H114.788V21.4979C114.788 24.0224 116.654 25.7823 119.238 25.7823C121.823 25.7823 123.707 24.0224 123.707 21.4979Z" stroke="#1E1E1E" stroke-width="0.70843"></path><path d="M137.23 25.6757L134.198 19.9335C135.849 19.5957 136.979 18.3869 136.979 16.538C136.979 14.3514 135.418 13.018 133.193 13.018H128.294V25.6757H129.658V20.058H132.726L135.633 25.6757H137.23ZM135.615 16.5558C135.615 18.1024 134.557 18.8669 133.067 18.8669H129.658V14.2269H133.067C134.557 14.2269 135.615 15.0091 135.615 16.5558Z" stroke="#1E1E1E" stroke-width="0.70843"></path><path d="M149.078 25.6757V24.4668H142.511V19.898H148.109V18.6891H142.511V14.2269H149.078V13.018H141.147V25.6757H149.078Z" stroke="#1E1E1E" stroke-width="0.70843"></path><path d="M169.753 16.7336C169.753 14.458 168.138 13.018 165.805 13.018H161.049V25.6757H162.413V20.4668H165.805C168.138 20.4668 169.753 19.0091 169.753 16.7336ZM168.389 16.7336C168.389 18.4046 167.276 19.258 165.679 19.258H162.413V14.2269H165.679C167.276 14.2269 168.389 15.0625 168.389 16.7336Z" stroke="#1E1E1E" stroke-width="0.70843"></path><path d="M181.436 25.6757L176.753 13.018H175.604L170.902 25.6757H172.356L173.379 22.8135H178.96L179.983 25.6757H181.436ZM178.565 21.6402H173.792L176.196 14.9558L178.565 21.6402Z" stroke="#1E1E1E" stroke-width="0.70843"></path><path d="M193.519 25.6757L190.486 19.9335C192.137 19.5957 193.268 18.3869 193.268 16.538C193.268 14.3514 191.706 13.018 189.481 13.018H184.582V25.6757H185.946V20.058H189.015L191.922 25.6757H193.519ZM191.904 16.5558C191.904 18.1024 190.845 18.8669 189.356 18.8669H185.946V14.2269H189.356C190.845 14.2269 191.904 15.0091 191.904 16.5558Z" stroke="#1E1E1E" stroke-width="0.70843"></path><path d="M207 25.6757L202.406 17.9069L206.426 13.018H204.757L198.799 20.2891V13.018H197.435V25.6757H198.799V22.1379L201.491 18.938L205.385 25.6757H207Z" stroke="#1E1E1E" stroke-width="0.70843"></path><g opacity="0.8"><path d="M110.865 44.9821L106.553 37.2133L110.326 32.3244H108.759L103.167 39.5955V32.3244H101.887V44.9821H103.167V41.4443L105.694 38.2444L109.349 44.9821H110.865Z" fill="#8C8B8A"></path><path d="M122.207 44.9821L117.811 32.3244H116.733L112.32 44.9821H113.684L114.644 42.1199H119.882L120.843 44.9821H122.207ZM119.512 40.9466H115.032L117.289 34.2622L119.512 40.9466Z" fill="#8C8B8A"></path><path d="M132.571 44.9821V43.7732H126.44V32.3244H125.16V44.9821H132.571Z" fill="#8C8B8A"></path><path d="M143.237 44.9821V43.7732H137.106V32.3244H135.826V44.9821H143.237Z" fill="#8C8B8A"></path><path d="M154.846 44.9821L150.45 32.3244H149.372L144.959 44.9821H146.323L147.283 42.1199H152.522L153.482 44.9821H154.846ZM152.151 40.9466H147.671L149.928 34.2622L152.151 40.9466Z" fill="#8C8B8A"></path><path d="M166.659 44.9821V32.3244H165.379V42.4399L159.012 32.3244H157.799V44.9821H159.079V34.8311L165.446 44.9821H166.659Z" fill="#8C8B8A"></path><path d="M179.113 40.3599V38.351H174.885V39.5421H177.833V40.5021C177.833 41.4799 177.648 42.1732 177.159 42.7954C176.603 43.5065 175.761 43.8799 174.885 43.8799C174.094 43.8799 173.336 43.5599 172.814 42.991C172.056 42.1732 171.971 41.3021 171.971 38.6533C171.971 36.0044 172.056 35.1511 172.814 34.3333C173.336 33.7644 174.094 33.4267 174.885 33.4267C176.384 33.4267 177.462 34.4044 177.799 36.0044H179.079C178.726 33.7822 177.176 32.2178 174.885 32.2178C173.689 32.2178 172.628 32.68 171.82 33.5333C170.691 34.7244 170.691 35.9688 170.691 38.6533C170.691 41.3377 170.691 42.5821 171.82 43.7732C172.628 44.6265 173.706 45.0887 174.885 45.0887C176.115 45.0887 177.243 44.591 178.086 43.631C178.827 42.7954 179.113 41.8177 179.113 40.3599Z" fill="#8C8B8A"></path><path d="M110.865 44.9821L106.553 37.2133L110.326 32.3244H108.759L103.167 39.5955V32.3244H101.887V44.9821H103.167V41.4443L105.694 38.2444L109.349 44.9821H110.865Z" stroke="#8C8B8A" stroke-width="0.53629"></path><path d="M122.207 44.9821L117.811 32.3244H116.733L112.32 44.9821H113.684L114.644 42.1199H119.882L120.843 44.9821H122.207ZM119.512 40.9466H115.032L117.289 34.2622L119.512 40.9466Z" stroke="#8C8B8A" stroke-width="0.53629"></path><path d="M132.571 44.9821V43.7732H126.44V32.3244H125.16V44.9821H132.571Z" stroke="#8C8B8A" stroke-width="0.53629"></path><path d="M143.237 44.9821V43.7732H137.106V32.3244H135.826V44.9821H143.237Z" stroke="#8C8B8A" stroke-width="0.53629"></path><path d="M154.846 44.9821L150.45 32.3244H149.372L144.959 44.9821H146.323L147.283 42.1199H152.522L153.482 44.9821H154.846ZM152.151 40.9466H147.671L149.928 34.2622L152.151 40.9466Z" stroke="#8C8B8A" stroke-width="0.53629"></path><path d="M166.659 44.9821V32.3244H165.379V42.4399L159.012 32.3244H157.799V44.9821H159.079V34.8311L165.446 44.9821H166.659Z" stroke="#8C8B8A" stroke-width="0.53629"></path><path d="M179.113 40.3599V38.351H174.885V39.5421H177.833V40.5021C177.833 41.4799 177.648 42.1732 177.159 42.7954C176.603 43.5065 175.761 43.8799 174.885 43.8799C174.094 43.8799 173.336 43.5599 172.814 42.991C172.056 42.1732 171.971 41.3021 171.971 38.6533C171.971 36.0044 172.056 35.1511 172.814 34.3333C173.336 33.7644 174.094 33.4267 174.885 33.4267C176.384 33.4267 177.462 34.4044 177.799 36.0044H179.079C178.726 33.7822 177.176 32.2178 174.885 32.2178C173.689 32.2178 172.628 32.68 171.82 33.5333C170.691 34.7244 170.691 35.9688 170.691 38.6533C170.691 41.3377 170.691 42.5821 171.82 43.7732C172.628 44.6265 173.706 45.0887 174.885 45.0887C176.115 45.0887 177.243 44.591 178.086 43.631C178.827 42.7954 179.113 41.8177 179.113 40.3599Z" stroke="#8C8B8A" stroke-width="0.53629"></path></g></svg> 